<?xml version="1.0" encoding="utf-8"?>
<!-- Generator: Adobe Illustrator 19.0.0, SVG Export Plug-In . SVG Version: 6.00 Build 0)  -->
<svg xmlns="http://www.w3.org/2000/svg" xmlns:xlink="http://www.w3.org/1999/xlink" version="1.1" id="Layer_1" x="0px" y="0px" viewBox="0 0 1400 980" style="enable-background:new 0 0 1400 980;" xml:space="preserve">
<style type="text/css">
	.st0{fill:#FFFFFF;}
	.st1{fill:#C2E5FF;}
	.st2{fill:#231F20;}
	.st3{fill:#FFCA4A;}
	.st4{fill:#A3822F;}
	.st5{fill:#5C91B0;}
	.st6{fill:#FFF45C;}
	.st7{fill:#BCBEC0;}
	.st8{fill:#FF5A4A;}
	.st9{fill:#FF6F5C;}
	.st10{fill:#848687;}
	.st11{fill:none;}
</style>
<g>
	<g>
		<g>
			
		</g>
	</g>
	<g>
		<g>
			<path class="st1" d="M509.3,281c-4.6,0-9.1,1-13.3,2.9c-0.2,0.1-0.4,0.1-0.6,0c-0.2-0.1-0.4-0.2-0.4-0.5     c-6.5-18-23.8-30.1-42.9-30.1c-25.2,0-45.7,20.5-45.7,45.7c0,0.3,0,0.7,0,1l0,0.4c0,0.2-0.1,0.5-0.3,0.6     c-0.2,0.2-0.4,0.2-0.6,0.2c-1.3-0.2-2.6-0.3-3.9-0.3c-12.1,0-21.9,9.8-21.9,21.9c0,12.1,9.8,21.9,21.9,21.9h107.7     c17.6,0,31.8-14.3,31.8-31.8C541.2,295.3,526.9,281,509.3,281z"/>
		</g>
		<g>
			<path class="st1" d="M268.7,182.4c-3.4,0-6.6,0.7-9.6,2.1c-0.2,0.1-0.4,0.1-0.6,0c-0.2-0.1-0.4-0.2-0.4-0.5     c-4.7-13.1-17.3-21.9-31.2-21.9c-18.3,0-33.1,14.9-33.1,33.1c0,0.3,0,0.5,0,0.8l0,0.2c0,0.2-0.1,0.5-0.3,0.6     c-0.2,0.2-0.4,0.2-0.6,0.2c-0.9-0.2-1.9-0.3-2.8-0.3c-8.7,0-15.8,7.1-15.8,15.8c0,8.7,7.1,15.8,15.8,15.8h78.7     c12.7,0,23-10.3,23-23C291.8,192.7,281.4,182.4,268.7,182.4z"/>
		</g>
		<g>
			<path class="st1" d="M1122.5,255c-4.6,0-9.1,1-13.3,2.9c-0.2,0.1-0.4,0.1-0.6,0c-0.2-0.1-0.4-0.2-0.4-0.5     c-6.5-18-23.8-30.1-42.9-30.1c-25.2,0-45.7,20.5-45.7,45.7c0,0.3,0,0.7,0,1l0,0.4c0,0.2-0.1,0.5-0.3,0.6     c-0.2,0.2-0.4,0.2-0.6,0.2c-1.3-0.2-2.6-0.3-3.9-0.3c-12.1,0-21.9,9.8-21.9,21.9c0,12.1,9.8,21.9,21.9,21.9h107.7     c17.6,0,31.8-14.3,31.8-31.8C1154.3,269.3,1140,255,1122.5,255z"/>
		</g>
		<g>
			<path class="st2" d="M1122.5,253.5c-4.6,0-9,0.9-13.2,2.7c-7-18.2-24.6-30.4-44.1-30.4c-26,0-47.2,21.2-47.2,47.2     c0,0.2,0,0.3,0,0.5c-1.1-0.1-2.1-0.2-3.2-0.2c-13,0-23.5,10.5-23.5,23.5c0,13,10.5,23.5,23.5,23.5h107.7     c18.4,0,33.4-15,33.4-33.4C1155.9,268.5,1140.9,253.5,1122.5,253.5z M1122.5,318.7h-107.7c-12.1,0-21.9-9.8-21.9-21.9     c0-12.1,9.8-21.9,21.9-21.9c1.3,0,2.6,0.1,3.9,0.3c0.2,0,0.5,0,0.6-0.2c0.2-0.2,0.3-0.4,0.3-0.6l0-0.4c0-0.3,0-0.7,0-1     c0-25.2,20.5-45.7,45.7-45.7c19.2,0,36.4,12.1,42.9,30.1c0.1,0.2,0.2,0.4,0.4,0.5c0.2,0.1,0.4,0.1,0.6,0     c4.2-1.9,8.7-2.9,13.3-2.9c17.6,0,31.8,14.3,31.8,31.8C1154.3,304.4,1140,318.7,1122.5,318.7z"/>
		</g>
		<g>
			<path class="st2" d="M268.7,180.8c-3.3,0-6.5,0.6-9.5,1.9c-5.2-13.3-18.1-22.1-32.3-22.1c-19.1,0-34.7,15.6-34.7,34.7     c0,0,0,0.1,0,0.1c-0.7-0.1-1.4-0.1-2.1-0.1c-9.6,0-17.4,7.8-17.4,17.4c0,9.6,7.8,17.4,17.4,17.4h78.7c13.6,0,24.6-11,24.6-24.6     C293.3,191.9,282.3,180.8,268.7,180.8z M268.7,228.5H190c-8.7,0-15.8-7.1-15.8-15.8c0-8.7,7.1-15.8,15.8-15.8     c0.9,0,1.9,0.1,2.8,0.3c0.2,0,0.5,0,0.6-0.2c0.2-0.2,0.3-0.4,0.3-0.6l0-0.2c0-0.2,0-0.5,0-0.8c0-18.3,14.9-33.1,33.1-33.1     c13.9,0,26.4,8.8,31.2,21.9c0.1,0.2,0.2,0.4,0.4,0.5c0.2,0.1,0.4,0.1,0.6,0c3-1.4,6.3-2.1,9.6-2.1c12.7,0,23,10.3,23,23     C291.8,218.1,281.4,228.5,268.7,228.5z"/>
		</g>
		<g>
			<path class="st2" d="M509.3,279.4c-4.6,0-9,0.9-13.2,2.7c-7-18.2-24.6-30.4-44.1-30.4c-26,0-47.2,21.2-47.2,47.2     c0,0.2,0,0.3,0,0.5c-1.1-0.1-2.1-0.2-3.2-0.2c-13,0-23.5,10.5-23.5,23.5c0,13,10.5,23.5,23.5,23.5h107.7     c18.4,0,33.4-15,33.4-33.4C542.7,294.4,527.7,279.4,509.3,279.4z M509.3,344.7H401.6c-12.1,0-21.9-9.8-21.9-21.9     c0-12.1,9.8-21.9,21.9-21.9c1.3,0,2.6,0.1,3.9,0.3c0.2,0,0.5,0,0.6-0.2c0.2-0.2,0.3-0.4,0.3-0.6l0-0.4c0-0.3,0-0.7,0-1     c0-25.2,20.5-45.7,45.7-45.7c19.2,0,36.4,12.1,42.9,30.1c0.1,0.2,0.2,0.4,0.4,0.5c0.2,0.1,0.4,0.1,0.6,0     c4.2-1.9,8.7-2.9,13.3-2.9c17.6,0,31.8,14.3,31.8,31.8C541.2,330.4,526.9,344.7,509.3,344.7z"/>
		</g>
	</g>
	<g>
		<g>
			<path class="st3" d="M497.9,753.1h92c0.4,0,0.8,0.3,0.8,0.8v40.5h77.9V445.8H497.9V753.1z"/>
		</g>
		<g>
			<path class="st3" d="M225.8,415.7v286.1l14.5,7.9v-38.8c0-6.1,5-11.1,11.1-11.1h10v-22.6c0-0.4,0.4-0.8,0.8-0.8h33.3     c0.4,0,0.8,0.3,0.8,0.8v22.6h43.5v-22.6c0-0.4,0.4-0.8,0.8-0.8h33.3c0.4,0,0.8,0.3,0.8,0.8v56c0,0.4-0.3,0.8-0.8,0.8h-1.3     l8.8,64.7l43.2,67.5l-0.8-18.6c0-0.2,0.1-0.5,0.3-0.6c0.2-0.2,0.4-0.2,0.7-0.2l11.8,2.5v-394c0-0.1,0-0.2,0.1-0.3l-105-90.9     L225.8,415.7z M296.2,612.4c0,0.4-0.3,0.8-0.8,0.8h-33.3c-0.4,0-0.8-0.3-0.8-0.8v-56c0-0.4,0.4-0.8,0.8-0.8h33.3     c0.4,0,0.8,0.3,0.8,0.8V612.4z M296.2,531.7c0,0.4-0.3,0.8-0.8,0.8h-33.3c-0.4,0-0.8-0.3-0.8-0.8v-56c0-0.4,0.4-0.8,0.8-0.8h33.3     c0.4,0,0.8,0.3,0.8,0.8V531.7z M339.7,556.4c0-0.4,0.4-0.8,0.8-0.8h33.3c0.4,0,0.8,0.3,0.8,0.8v56c0,0.4-0.3,0.8-0.8,0.8h-33.3     c-0.4,0-0.8-0.3-0.8-0.8V556.4z"/>
		</g>
		<g>
			<rect x="341.3" y="557.2" class="st4" width="31.8" height="54.4"/>
		</g>
		<g>
			<rect x="262.9" y="476.5" class="st4" width="31.8" height="54.4"/>
		</g>
		<g>
			<rect x="262.9" y="557.2" class="st4" width="31.8" height="54.4"/>
		</g>
		<g>
			<rect x="1178.3" y="445.8" class="st3" width="70.7" height="348.2"/>
		</g>
		<g>
			<path class="st3" d="M1029.9,828.3h109.8v-33.5c0-0.4,0.4-0.8,0.8-0.8h36.3V445.8h-146.9V828.3z"/>
		</g>
		<g>
			<path class="st2" d="M1176.7,794.9v-0.8h-36.3c-0.4,0-0.8,0.4-0.8,0.8v33.5h-109.8V445.8h146.9v-0.8c0-0.4,0.3-0.8,0.8-0.8     h-148.4c-0.4,0-0.8,0.3-0.8,0.8v384.1c0,0.4,0.4,0.8,0.8,0.8h111.4c0.4,0,0.8-0.4,0.8-0.8v-33.5h36.3     C1177.1,795.6,1176.7,795.3,1176.7,794.9z"/>
		</g>
		<g>
			<path class="st2" d="M1249.7,444.3h-72.2c0.4,0,0.8,0.3,0.8,0.8v0.8h70.7v348.2h-70.7v0.8c0,0.4-0.4,0.8-0.8,0.8h72.2     c0.4,0,0.8-0.3,0.8-0.8V445.1C1250.5,444.6,1250.2,444.3,1249.7,444.3z"/>
		</g>
		<g>
			<path class="st2" d="M1178.3,794.9v-0.8V445.8v-0.8c0-0.4-0.4-0.8-0.8-0.8c-0.4,0-0.8,0.3-0.8,0.8v0.8v348.2v0.8     c0,0.4,0.3,0.8,0.8,0.8C1177.9,795.6,1178.3,795.3,1178.3,794.9z"/>
		</g>
		<g>
			<path class="st2" d="M295.4,474.9h-33.3c-0.4,0-0.8,0.3-0.8,0.8v56c0,0.4,0.4,0.8,0.8,0.8h33.3c0.4,0,0.8-0.3,0.8-0.8v-56     C296.2,475.2,295.9,474.9,295.4,474.9z M294.7,530.9h-31.8v-54.4h31.8V530.9z"/>
		</g>
		<g>
			<path class="st2" d="M295.4,555.6h-33.3c-0.4,0-0.8,0.3-0.8,0.8v56c0,0.4,0.4,0.8,0.8,0.8h33.3c0.4,0,0.8-0.3,0.8-0.8v-56     C296.2,556,295.9,555.6,295.4,555.6z M294.7,611.7h-31.8v-54.4h31.8V611.7z"/>
		</g>
		<g>
			<path class="st2" d="M438.5,414.7l-106.5-92.2c-0.3-0.3-0.7-0.3-1,0l-106.6,92.3c-0.2,0.1-0.3,0.4-0.3,0.6v286.9     c0,0.3,0.2,0.5,0.4,0.7l16,8.7c0.2,0.1,0.5,0.1,0.8,0c0.2-0.1,0.4-0.4,0.4-0.7v-40.2c0-5.2,4.3-9.5,9.5-9.5h10.8     c0.4,0,0.8-0.3,0.8-0.8V638h31.8v22.6c0,0.4,0.4,0.8,0.8,0.8h45.1c0.4,0,0.8-0.3,0.8-0.8V638h31.8v54.4h-1.4     c-0.2,0-0.4,0.1-0.6,0.3c-0.1,0.2-0.2,0.4-0.2,0.6l8.9,65.3l0.1,0.6c0,0.2,0.1,0.3,0.2,0.4l44.7,70c0.1,0.2,0.4,0.4,0.7,0.4     c0,0,0,0,0,0c0.4,0,0.8-0.3,0.8-0.8c0-0.1,0-0.2,0-0.3l-0.9-20.3l11.8,2.5c0.2,0,0.5,0,0.7-0.2c0.2-0.1,0.3-0.4,0.3-0.6V416.1     h0.1c0,0,0,0,0,0c0.4,0,0.8-0.3,0.8-0.8C439,415,438.8,414.8,438.5,414.7z M436.5,415.3v394l-11.8-2.5c-0.2-0.1-0.5,0-0.7,0.2     c-0.2,0.2-0.3,0.4-0.3,0.6l0.8,18.6l-43.2-67.5l-8.8-64.7h1.3c0.4,0,0.8-0.3,0.8-0.8v-56c0-0.4-0.3-0.8-0.8-0.8h-33.3     c-0.4,0-0.8,0.3-0.8,0.8v22.6h-43.5v-22.6c0-0.4-0.3-0.8-0.8-0.8h-33.3c-0.4,0-0.8,0.3-0.8,0.8v22.6h-10c-6.1,0-11.1,5-11.1,11.1     v38.8l-14.5-7.9V415.7l105.8-91.6l105,90.9C436.5,415.1,436.5,415.2,436.5,415.3z"/>
		</g>
		<g>
			<path class="st2" d="M340.5,613.2h33.3c0.4,0,0.8-0.3,0.8-0.8v-56c0-0.4-0.3-0.8-0.8-0.8h-33.3c-0.4,0-0.8,0.3-0.8,0.8v56     C339.7,612.9,340.1,613.2,340.5,613.2z M341.3,557.2h31.8v54.4h-31.8V557.2z"/>
		</g>
		<g>
			<path class="st2" d="M669.3,444.3H497.1c-0.4,0-0.8,0.4-0.8,0.8v308.8c0,0.4,0.4,0.8,0.8,0.8h92v40.5c0,0.4,0.3,0.8,0.8,0.8h79.5     c0.4,0,0.8-0.4,0.8-0.8V445C670.1,444.6,669.8,444.3,669.3,444.3z M668.6,794.3h-77.9v-40.5c0-0.4-0.3-0.8-0.8-0.8h-92V445.8     h170.7V794.3z"/>
		</g>
	</g>
	<g>
		<g>
			<rect x="884.8" y="455.6" class="st0" width="28.4" height="44.9"/>
		</g>
		<g>
			<path class="st5" d="M861,519.1h78.3v-81.4H861V519.1z M883.2,454.8c0-0.4,0.3-0.8,0.8-0.8H914c0.4,0,0.8,0.3,0.8,0.8v46.5     c0,0.4-0.3,0.8-0.8,0.8H884c-0.4,0-0.8-0.3-0.8-0.8V454.8z"/>
		</g>
		<g>
			<path class="st2" d="M940.1,436.2h-79.8c-0.4,0-0.8,0.3-0.8,0.8v82.9c0,0.4,0.3,0.8,0.8,0.8h79.8c0.4,0,0.8-0.3,0.8-0.8V437     C940.9,436.6,940.5,436.2,940.1,436.2z M939.3,519.1H861v-81.4h78.3V519.1z"/>
		</g>
		<g>
			<path class="st2" d="M884,502H914c0.4,0,0.8-0.3,0.8-0.8v-46.5c0-0.4-0.3-0.8-0.8-0.8H884c-0.4,0-0.8,0.3-0.8,0.8v46.5     C883.2,501.7,883.6,502,884,502z M884.8,455.6h28.4v44.9h-28.4V455.6z"/>
		</g>
	</g>
	<g>
		<g>
			<path class="st5" d="M688.2,629.2h80.1v-81.4h-80.1V629.2z M711.3,564.8c0-0.4,0.4-0.8,0.8-0.8H742c0.4,0,0.8,0.3,0.8,0.8v46.4     c0,0.4-0.3,0.8-0.8,0.8h-29.9c-0.4,0-0.8-0.3-0.8-0.8V564.8z"/>
		</g>
		<g>
			<rect x="797.1" y="817.1" class="st0" width="28.4" height="44.9"/>
		</g>
		<g>
			<rect x="797.1" y="733.3" class="st0" width="28.4" height="44.9"/>
		</g>
		<g>
			<path class="st5" d="M769.9,880.7h78.6v-82.3h-78.6V880.7z M795.5,816.3c0-0.4,0.3-0.8,0.8-0.8h29.9c0.4,0,0.8,0.4,0.8,0.8v46.5     c0,0.4-0.3,0.8-0.8,0.8h-29.9c-0.4,0-0.8-0.3-0.8-0.8V816.3z"/>
		</g>
		<g>
			<path class="st5" d="M769.9,713h78.6v-82.3h-78.6V713z M795.5,648.7c0-0.4,0.3-0.8,0.8-0.8h29.9c0.4,0,0.8,0.3,0.8,0.8v46.5     c0,0.4-0.3,0.8-0.8,0.8h-29.9c-0.4,0-0.8-0.3-0.8-0.8V648.7z"/>
		</g>
		<g>
			<rect x="797.1" y="649.4" class="st0" width="28.4" height="44.9"/>
		</g>
		<g>
			<path class="st5" d="M769.9,796.8h78.6v-82.3h-78.6V796.8z M795.5,732.5c0-0.4,0.3-0.8,0.8-0.8h29.9c0.4,0,0.8,0.3,0.8,0.8v46.5     c0,0.4-0.3,0.8-0.8,0.8h-29.9c-0.4,0-0.8-0.3-0.8-0.8V732.5z"/>
		</g>
		<g>
			<rect x="712.9" y="817.1" class="st0" width="28.4" height="44.9"/>
		</g>
		<g>
			<path class="st5" d="M688.2,880.7h80.1v-82.3h-80.1V880.7z M711.3,816.3c0-0.4,0.4-0.8,0.8-0.8H742c0.4,0,0.8,0.4,0.8,0.8v46.5     c0,0.4-0.3,0.8-0.8,0.8h-29.9c-0.4,0-0.8-0.3-0.8-0.8V816.3z"/>
		</g>
		<g>
			<path class="st5" d="M688.2,796.8h80.1v-82.3h-80.1V796.8z M711.3,732.5c0-0.4,0.4-0.8,0.8-0.8H742c0.4,0,0.8,0.3,0.8,0.8v46.5     c0,0.4-0.3,0.8-0.8,0.8h-29.9c-0.4,0-0.8-0.3-0.8-0.8V732.5z"/>
		</g>
		<g>
			<rect x="797.1" y="565.6" class="st0" width="28.4" height="44.9"/>
		</g>
		<g>
			<rect x="712.9" y="565.6" class="st0" width="28.4" height="44.9"/>
		</g>
		<g>
			<rect x="712.9" y="649.4" class="st0" width="28.4" height="44.9"/>
		</g>
		<g>
			<path class="st5" d="M688.2,713h80.1v-82.3h-80.1V713z M711.3,648.7c0-0.4,0.4-0.8,0.8-0.8H742c0.4,0,0.8,0.3,0.8,0.8v46.5     c0,0.4-0.3,0.8-0.8,0.8h-29.9c-0.4,0-0.8-0.3-0.8-0.8V648.7z"/>
		</g>
		<g>
			<rect x="712.9" y="733.3" class="st0" width="28.4" height="44.9"/>
		</g>
		<g>
			<path class="st5" d="M850.1,713h78.3v-82.3h-78.3V713z M872.3,648.7c0-0.4,0.3-0.8,0.8-0.8H903c0.4,0,0.8,0.3,0.8,0.8v46.5     c0,0.4-0.3,0.8-0.8,0.8h-29.9c-0.4,0-0.8-0.3-0.8-0.8V648.7z"/>
		</g>
		<g>
			<rect x="873.9" y="733.3" class="st0" width="28.4" height="44.9"/>
		</g>
		<g>
			<path class="st5" d="M850.1,629.2h78.3v-81.4h-78.3V629.2z M872.3,564.8c0-0.4,0.3-0.8,0.8-0.8H903c0.4,0,0.8,0.3,0.8,0.8v46.4     c0,0.4-0.3,0.8-0.8,0.8h-29.9c-0.4,0-0.8-0.3-0.8-0.8V564.8z"/>
		</g>
		<g>
			<path class="st5" d="M850.1,796.8h78.3v-82.3h-78.3V796.8z M872.3,732.5c0-0.4,0.3-0.8,0.8-0.8H903c0.4,0,0.8,0.3,0.8,0.8v46.5     c0,0.4-0.3,0.8-0.8,0.8h-29.9c-0.4,0-0.8-0.3-0.8-0.8V732.5z"/>
		</g>
		<g>
			<rect x="873.9" y="649.4" class="st0" width="28.4" height="44.9"/>
		</g>
		<g>
			<rect x="873.9" y="565.6" class="st0" width="28.4" height="44.9"/>
		</g>
		<g>
			<path class="st5" d="M769.9,629.2h78.6v-81.4h-78.6V629.2z M795.5,564.8c0-0.4,0.3-0.8,0.8-0.8h29.9c0.4,0,0.8,0.3,0.8,0.8v46.4     c0,0.4-0.3,0.8-0.8,0.8h-29.9c-0.4,0-0.8-0.3-0.8-0.8V564.8z"/>
		</g>
		<g>
			<rect x="873.9" y="817.1" class="st0" width="28.4" height="44.9"/>
		</g>
		<g>
			<path class="st5" d="M850.1,880.7h78.3v-82.3h-78.3V880.7z M872.3,816.3c0-0.4,0.3-0.8,0.8-0.8H903c0.4,0,0.8,0.4,0.8,0.8v46.5     c0,0.4-0.3,0.8-0.8,0.8h-29.9c-0.4,0-0.8-0.3-0.8-0.8V816.3z"/>
		</g>
		<g>
			<path class="st2" d="M796.3,612.1h29.9c0.4,0,0.8-0.3,0.8-0.8v-46.4c0-0.4-0.3-0.8-0.8-0.8h-29.9c-0.4,0-0.8,0.3-0.8,0.8v46.4     C795.5,611.7,795.9,612.1,796.3,612.1z M797.1,565.6h28.4v44.9h-28.4V565.6z"/>
		</g>
		<g>
			<path class="st2" d="M796.3,695.9h29.9c0.4,0,0.8-0.3,0.8-0.8v-46.5c0-0.4-0.3-0.8-0.8-0.8h-29.9c-0.4,0-0.8,0.3-0.8,0.8v46.5     C795.5,695.5,795.9,695.9,796.3,695.9z M797.1,649.4h28.4v44.9h-28.4V649.4z"/>
		</g>
		<g>
			<path class="st2" d="M796.3,779.7h29.9c0.4,0,0.8-0.3,0.8-0.8v-46.5c0-0.4-0.3-0.8-0.8-0.8h-29.9c-0.4,0-0.8,0.3-0.8,0.8v46.5     C795.5,779.4,795.9,779.7,796.3,779.7z M797.1,733.3h28.4v44.9h-28.4V733.3z"/>
		</g>
		<g>
			<path class="st2" d="M796.3,863.5h29.9c0.4,0,0.8-0.3,0.8-0.8v-46.5c0-0.4-0.3-0.8-0.8-0.8h-29.9c-0.4,0-0.8,0.4-0.8,0.8v46.5     C795.5,863.2,795.9,863.5,796.3,863.5z M797.1,817.1h28.4V862h-28.4V817.1z"/>
		</g>
		<g>
			<path class="st2" d="M712.1,612.1H742c0.4,0,0.8-0.3,0.8-0.8v-46.4c0-0.4-0.3-0.8-0.8-0.8h-29.9c-0.4,0-0.8,0.3-0.8,0.8v46.4     C711.3,611.7,711.7,612.1,712.1,612.1z M712.9,565.6h28.4v44.9h-28.4V565.6z"/>
		</g>
		<g>
			<path class="st2" d="M712.1,695.9H742c0.4,0,0.8-0.3,0.8-0.8v-46.5c0-0.4-0.3-0.8-0.8-0.8h-29.9c-0.4,0-0.8,0.3-0.8,0.8v46.5     C711.3,695.5,711.7,695.9,712.1,695.9z M712.9,649.4h28.4v44.9h-28.4V649.4z"/>
		</g>
		<g>
			<path class="st2" d="M712.1,779.7H742c0.4,0,0.8-0.3,0.8-0.8v-46.5c0-0.4-0.3-0.8-0.8-0.8h-29.9c-0.4,0-0.8,0.3-0.8,0.8v46.5     C711.3,779.4,711.7,779.7,712.1,779.7z M712.9,733.3h28.4v44.9h-28.4V733.3z"/>
		</g>
		<g>
			<path class="st2" d="M712.1,863.5H742c0.4,0,0.8-0.3,0.8-0.8v-46.5c0-0.4-0.3-0.8-0.8-0.8h-29.9c-0.4,0-0.8,0.4-0.8,0.8v46.5     C711.3,863.2,711.7,863.5,712.1,863.5z M712.9,817.1h28.4V862h-28.4V817.1z"/>
		</g>
		<g>
			<path class="st2" d="M873.1,612.1H903c0.4,0,0.8-0.3,0.8-0.8v-46.4c0-0.4-0.3-0.8-0.8-0.8h-29.9c-0.4,0-0.8,0.3-0.8,0.8v46.4     C872.3,611.7,872.6,612.1,873.1,612.1z M873.9,565.6h28.4v44.9h-28.4V565.6z"/>
		</g>
		<g>
			<path class="st2" d="M873.1,695.9H903c0.4,0,0.8-0.3,0.8-0.8v-46.5c0-0.4-0.3-0.8-0.8-0.8h-29.9c-0.4,0-0.8,0.3-0.8,0.8v46.5     C872.3,695.5,872.6,695.9,873.1,695.9z M873.9,649.4h28.4v44.9h-28.4V649.4z"/>
		</g>
		<g>
			<path class="st2" d="M873.1,779.7H903c0.4,0,0.8-0.3,0.8-0.8v-46.5c0-0.4-0.3-0.8-0.8-0.8h-29.9c-0.4,0-0.8,0.3-0.8,0.8v46.5     C872.3,779.4,872.6,779.7,873.1,779.7z M873.9,733.3h28.4v44.9h-28.4V733.3z"/>
		</g>
		<g>
			<path class="st2" d="M873.1,863.5H903c0.4,0,0.8-0.3,0.8-0.8v-46.5c0-0.4-0.3-0.8-0.8-0.8h-29.9c-0.4,0-0.8,0.4-0.8,0.8v46.5     C872.3,863.2,872.6,863.5,873.1,863.5z M873.9,817.1h28.4V862h-28.4V817.1z"/>
		</g>
		<g>
			<path class="st2" d="M981.4,630.8c0.4,0,0.8-0.3,0.8-0.8c0-0.4-0.4-0.8-0.8-0.8h-51.5v-81.4h51.5c0.4,0,0.8-0.3,0.8-0.8     c0-0.4-0.4-0.8-0.8-0.8h-52.3h-79v-34.1c0-0.4-0.3-0.8-0.8-0.8c-0.4,0-0.8,0.4-0.8,0.8v34.1h-78.6V376.9c0-0.4-0.4-0.8-0.8-0.8     c-0.4,0-0.8,0.3-0.8,0.8v169.4h-80.9c-0.4,0-0.8,0.3-0.8,0.8V630v83.8v83.8v84.7c0,0.4,0.3,0.8,0.8,0.8h241.7     c0.4,0,0.8-0.4,0.8-0.8v-0.1h51.5c0.4,0,0.8-0.3,0.8-0.8c0-0.4-0.4-0.8-0.8-0.8h-51.5v-82.3h51.5c0.4,0,0.8-0.3,0.8-0.8     c0-0.4-0.4-0.8-0.8-0.8h-51.5v-82.3h51.5c0.4,0,0.8-0.3,0.8-0.8c0-0.4-0.4-0.8-0.8-0.8h-51.5v-82.3H981.4z M768.3,880.7h-80.1     v-82.3h80.1V880.7z M768.3,796.8h-80.1v-82.3h80.1V796.8z M768.3,713h-80.1v-82.3h80.1V713z M768.3,629.2h-80.1v-81.4h80.1V629.2     z M848.5,880.7h-78.6v-82.3h78.6V880.7z M848.5,796.8h-78.6v-82.3h78.6V796.8z M848.5,713h-78.6v-82.3h78.6V713z M848.5,629.2     h-78.6v-81.4h78.6V629.2z M928.4,880.7h-78.3v-82.3h78.3V880.7z M928.4,796.8h-78.3v-82.3h78.3V796.8z M928.4,713h-78.3v-82.3     h78.3V713z M928.4,629.2h-78.3v-81.4h78.3V629.2z"/>
		</g>
	</g>
	<g>
		<g>
			<rect x="897.3" y="357.5" class="st6" width="5.7" height="4.8"/>
		</g>
		<g>
			<polygon class="st6" points="906.7,356 910,336.1 890.3,336.1 893.6,356 896.6,356 903.8,356    "/>
		</g>
		<g>
			<path class="st2" d="M911.5,334.8c-0.1-0.2-0.4-0.3-0.6-0.3h-21.5c-0.2,0-0.4,0.1-0.6,0.3c-0.2,0.2-0.2,0.4-0.2,0.6l3.6,21.4     c0.1,0.4,0.4,0.7,0.8,0.7h2.8v-0.8c0-0.4,0.3-0.8,0.8-0.8h-2.9l-3.3-19.9H910l-3.3,19.9h-2.9c0.4,0,0.8,0.3,0.8,0.8v0.8h2.8     c0.4,0,0.7-0.3,0.8-0.7l3.6-21.4C911.8,335.2,911.7,335,911.5,334.8z"/>
		</g>
		<g>
			<path class="st2" d="M903,362.3h-5.7v-4.8h-1.6v5.5c0,0.4,0.3,0.8,0.8,0.8h7.2c0.4,0,0.8-0.3,0.8-0.8v-5.5H903V362.3z"/>
		</g>
		<g>
			<path class="st2" d="M903.8,356h-7.2c-0.4,0-0.8,0.3-0.8,0.8v0.8h1.6h5.7h1.6v-0.8C904.6,356.3,904.2,356,903.8,356z"/>
		</g>
	</g>
	<g>
		<g>
			<path class="st2" d="M900.2,376.9c-3.2,0-5.9-2.6-5.9-5.9c0-3,2.2-5.4,5.1-5.8v-2.2c0-0.4,0.3-0.8,0.8-0.8c0.4,0,0.8,0.3,0.8,0.8     v2.9c0,0.4-0.3,0.8-0.8,0.8c-2.4,0-4.3,1.9-4.3,4.3c0,2.4,1.9,4.3,4.3,4.3c1.1,0,2.2-0.4,3-1.3c0.3-0.3,0.8-0.3,1.1,0     c0.3,0.3,0.3,0.8,0,1.1C903.2,376.3,901.7,376.9,900.2,376.9z"/>
		</g>
	</g>
	<g>
		<g>
			<rect x="861" y="413" class="st7" width="78.3" height="1.8"/>
		</g>
		<g>
			<rect x="861" y="403.3" class="st7" width="78.3" height="1.8"/>
		</g>
		<g>
			<rect x="861" y="406.6" class="st7" width="78.3" height="4.8"/>
		</g>
		<g>
			<path class="st2" d="M940.1,401.7h-79.8c-0.4,0-0.8,0.3-0.8,0.8v3.4c0-0.4,0.3-0.8,0.8-0.8h0.8v-1.8h78.3v1.8h0.8     c0.4,0,0.8,0.3,0.8,0.8v-3.4C940.9,402,940.5,401.7,940.1,401.7z"/>
		</g>
		<g>
			<path class="st2" d="M940.1,413h-0.8v1.8H861V413h-0.8c-0.4,0-0.8-0.3-0.8-0.8v3.4c0,0.4,0.3,0.8,0.8,0.8h79.8     c0.4,0,0.8-0.3,0.8-0.8v-3.4C940.9,412.7,940.5,413,940.1,413z"/>
		</g>
		<g>
			<path class="st2" d="M940.1,406.6h-0.8v4.8h0.8c0.4,0,0.8,0.3,0.8,0.8v-6.4C940.9,406.3,940.5,406.6,940.1,406.6z"/>
		</g>
		<g>
			<path class="st2" d="M860.3,411.5h0.8v-4.8h-0.8c-0.4,0-0.8-0.3-0.8-0.8v6.4C859.5,411.8,859.8,411.5,860.3,411.5z"/>
		</g>
		<g>
			<path class="st2" d="M940.1,405.1h-0.8H861h-0.8c-0.4,0-0.8,0.3-0.8,0.8c0,0.4,0.3,0.8,0.8,0.8h0.8h78.3h0.8     c0.4,0,0.8-0.3,0.8-0.8C940.9,405.4,940.5,405.1,940.1,405.1z"/>
		</g>
		<g>
			<path class="st2" d="M940.1,411.5h-0.8H861h-0.8c-0.4,0-0.8,0.3-0.8,0.8c0,0.4,0.3,0.8,0.8,0.8h0.8h78.3h0.8     c0.4,0,0.8-0.3,0.8-0.8C940.9,411.8,940.5,411.5,940.1,411.5z"/>
		</g>
	</g>
	<g>
		<g>
			<path class="st2" d="M860.3,437.8c-0.1,0-0.2,0-0.3-0.1c-0.4-0.2-0.6-0.7-0.4-1l10.3-21.4c0.2-0.4,0.7-0.6,1-0.4     c0.4,0.2,0.6,0.7,0.4,1L861,437.3C860.8,437.6,860.6,437.8,860.3,437.8z"/>
		</g>
	</g>
	<g>
		<g>
			<path class="st2" d="M940.1,437.8c-0.3,0-0.6-0.2-0.7-0.4L929.1,416c-0.2-0.4,0-0.9,0.4-1c0.4-0.2,0.9,0,1,0.4l10.3,21.4     c0.2,0.4,0,0.9-0.4,1C940.3,437.8,940.2,437.8,940.1,437.8z"/>
		</g>
	</g>
	<g>
		<g>
			<path class="st2" d="M863.5,403.3c-0.2,0-0.5-0.1-0.6-0.3c-0.3-0.4-0.2-0.8,0.2-1.1l36.7-26.3c0.4-0.3,0.8-0.2,1.1,0.2     c0.3,0.4,0.2,0.8-0.2,1.1L864,403.1C863.8,403.2,863.7,403.3,863.5,403.3z"/>
		</g>
	</g>
	<g>
		<g>
			<path class="st2" d="M940.1,403.3c-0.1,0-0.3,0-0.4-0.1l-39.9-26.3c-0.4-0.2-0.5-0.7-0.2-1.1c0.2-0.4,0.7-0.5,1.1-0.2l39.9,26.3     c0.4,0.2,0.5,0.7,0.2,1.1C940.6,403.1,940.3,403.3,940.1,403.3z"/>
		</g>
	</g>
	<g>
		<g>
			<rect x="573.7" y="694.6" class="st4" width="19" height="31.5"/>
		</g>
		<g>
			<rect x="573.7" y="528.5" class="st4" width="19" height="31.5"/>
		</g>
		<g>
			<rect x="573.7" y="583.9" class="st4" width="19" height="31.5"/>
		</g>
		<g>
			<rect x="573.7" y="473.2" class="st4" width="19" height="31.5"/>
		</g>
		<g>
			<path class="st2" d="M593.5,471.6h-20.5c-0.4,0-0.8,0.3-0.8,0.8v33c0,0.4,0.3,0.8,0.8,0.8h20.5c0.4,0,0.8-0.3,0.8-0.8v-33     C594.3,471.9,593.9,471.6,593.5,471.6z M592.7,504.6h-19v-31.5h19V504.6z"/>
		</g>
		<g>
			<path class="st2" d="M593.5,527h-20.5c-0.4,0-0.8,0.4-0.8,0.8v33c0,0.4,0.3,0.8,0.8,0.8h20.5c0.4,0,0.8-0.3,0.8-0.8v-33     C594.3,527.3,593.9,527,593.5,527z M592.7,560h-19v-31.5h19V560z"/>
		</g>
		<g>
			<path class="st2" d="M593.5,582.3h-20.5c-0.4,0-0.8,0.3-0.8,0.8v33c0,0.4,0.3,0.8,0.8,0.8h20.5c0.4,0,0.8-0.3,0.8-0.8v-33     C594.3,582.7,593.9,582.3,593.5,582.3z M592.7,615.4h-19v-31.5h19V615.4z"/>
		</g>
		<g>
			<path class="st2" d="M593.5,693.1h-20.5c-0.4,0-0.8,0.4-0.8,0.8v33c0,0.4,0.3,0.8,0.8,0.8h20.5c0.4,0,0.8-0.4,0.8-0.8v-33     C594.3,693.4,593.9,693.1,593.5,693.1z M592.7,726.1h-19v-31.5h19V726.1z"/>
		</g>
	</g>
	<g>
		<g>
			<polygon class="st8" points="1237.9,795.6 1196.2,795.6 1168.9,822.9 1155.6,836.2 1197.4,836.2 1211,822.6    "/>
		</g>
		<g>
			<polygon class="st0" points="1194,795.6 1141.2,795.6 1141.2,836.2 1153.4,836.2 1174,815.6    "/>
		</g>
		<g>
			<polygon class="st0" points="1281.8,795.6 1240.1,795.6 1212.8,822.9 1199.6,836.2 1241.3,836.2 1276.8,800.7    "/>
		</g>
		<g>
			<path class="st8" d="M1295,795.6h-10.9l-33.5,33.5c0,0.1,0,0.1,0,0.2c0,0,0,0.1,0,0.1c0,0.1-0.1,0.1-0.1,0.2c0,0,0,0-0.1,0.1     c-0.1,0.1-0.1,0.1-0.2,0.1c0,0-0.1,0-0.1,0c-0.1,0-0.1,0-0.2,0l-3.9,3.9l-2.4,2.4h51.5V795.6z"/>
		</g>
		<g>
			<path class="st2" d="M1298.3,886.2l-48.5-48.5h45.9c0.4,0,0.8-0.3,0.8-0.8v-42.1c0-0.4-0.4-0.8-0.8-0.8h-12h-43.9h-43.9h-55.4     c-0.4,0-0.8,0.4-0.8,0.8V837c0,0.4,0.4,0.8,0.8,0.8h13.3h32.8l-48.5,48.5c-0.3,0.3-0.3,0.8,0,1.1c0.2,0.2,0.4,0.2,0.6,0.2     c0.2,0,0.4-0.1,0.6-0.2l49.6-49.6h9h43.9h6l49.6,49.6c0.2,0.2,0.4,0.2,0.6,0.2c0.2,0,0.4-0.1,0.6-0.2     C1298.6,887,1298.6,886.5,1298.3,886.2z M1153.4,836.2h-12.2v-40.5h52.7l-20,20L1153.4,836.2z M1197.4,836.2h-41.7l13.2-13.2     l27.3-27.3h41.7l-26.9,26.9L1197.4,836.2z M1241.3,836.2h-41.7l13.2-13.2l27.3-27.3h41.7l-5,5L1241.3,836.2z M1243.5,836.2     l2.4-2.4l3.9-3.9c0.1,0,0.1,0,0.2,0c0,0,0.1,0,0.1,0c0.1,0,0.1-0.1,0.2-0.1c0,0,0,0,0.1-0.1c0.1-0.1,0.1-0.1,0.1-0.2     c0,0,0-0.1,0-0.1c0-0.1,0-0.1,0-0.2l33.5-33.5h10.9v40.5H1243.5z"/>
		</g>
	</g>
	<g>
		<g>
			<rect x="1107.3" y="536.6" class="st4" width="20.4" height="34.7"/>
		</g>
		<g>
			<rect x="1107.3" y="658" class="st4" width="20.4" height="34.7"/>
		</g>
		<g>
			<rect x="1107.3" y="475.8" class="st4" width="20.4" height="34.7"/>
		</g>
		<g>
			<rect x="1139.4" y="718.8" class="st4" width="20.4" height="34.7"/>
		</g>
		<g>
			<rect x="1139.4" y="658" class="st4" width="20.4" height="34.7"/>
		</g>
		<g>
			<rect x="1075.1" y="718.8" class="st4" width="20.4" height="34.7"/>
		</g>
		<g>
			<rect x="1075.1" y="475.8" class="st4" width="20.4" height="34.7"/>
		</g>
		<g>
			<rect x="1043" y="718.8" class="st4" width="20.4" height="34.7"/>
		</g>
		<g>
			<rect x="1043" y="536.6" class="st4" width="20.4" height="34.7"/>
		</g>
		<g>
			<rect x="1075.1" y="597.3" class="st4" width="20.4" height="34.7"/>
		</g>
		<g>
			<rect x="1139.4" y="536.6" class="st4" width="20.4" height="34.7"/>
		</g>
		<g>
			<rect x="1107.3" y="597.3" class="st4" width="20.4" height="34.7"/>
		</g>
		<g>
			<rect x="1203.7" y="597.3" class="st4" width="20.4" height="34.7"/>
		</g>
		<g>
			<rect x="1203.7" y="475.8" class="st4" width="20.4" height="34.7"/>
		</g>
		<g>
			<rect x="1203.7" y="718.8" class="st4" width="20.4" height="34.7"/>
		</g>
		<g>
			<rect x="1203.7" y="536.6" class="st4" width="20.4" height="34.7"/>
		</g>
		<g>
			<rect x="1139.4" y="475.8" class="st4" width="20.4" height="34.7"/>
		</g>
		<g>
			<path class="st2" d="M1096.3,474.3h-21.9c-0.4,0-0.8,0.4-0.8,0.8v36.2c0,0.4,0.3,0.8,0.8,0.8h21.9c0.4,0,0.8-0.4,0.8-0.8V475     C1097.1,474.6,1096.7,474.3,1096.3,474.3z M1095.5,510.5h-20.4v-34.7h20.4V510.5z"/>
		</g>
		<g>
			<path class="st2" d="M1128.4,474.3h-21.9c-0.4,0-0.8,0.4-0.8,0.8v36.2c0,0.4,0.4,0.8,0.8,0.8h21.9c0.4,0,0.8-0.4,0.8-0.8V475     C1129.2,474.6,1128.9,474.3,1128.4,474.3z M1127.6,510.5h-20.4v-34.7h20.4V510.5z"/>
		</g>
		<g>
			<path class="st2" d="M1160.6,474.3h-21.9c-0.4,0-0.8,0.4-0.8,0.8v36.2c0,0.4,0.3,0.8,0.8,0.8h21.9c0.4,0,0.8-0.4,0.8-0.8V475     C1161.3,474.6,1161,474.3,1160.6,474.3z M1159.8,510.5h-20.4v-34.7h20.4V510.5z"/>
		</g>
		<g>
			<path class="st2" d="M1224.9,474.3H1203c-0.4,0-0.8,0.4-0.8,0.8v36.2c0,0.4,0.3,0.8,0.8,0.8h21.9c0.4,0,0.8-0.4,0.8-0.8V475     C1225.7,474.6,1225.3,474.3,1224.9,474.3z M1224.1,510.5h-20.4v-34.7h20.4V510.5z"/>
		</g>
		<g>
			<path class="st2" d="M1224.9,535H1203c-0.4,0-0.8,0.3-0.8,0.8V572c0,0.4,0.3,0.8,0.8,0.8h21.9c0.4,0,0.8-0.3,0.8-0.8v-36.2     C1225.7,535.4,1225.3,535,1224.9,535z M1224.1,571.3h-20.4v-34.7h20.4V571.3z"/>
		</g>
		<g>
			<path class="st2" d="M1224.9,595.7H1203c-0.4,0-0.8,0.3-0.8,0.8v36.2c0,0.4,0.3,0.8,0.8,0.8h21.9c0.4,0,0.8-0.4,0.8-0.8v-36.2     C1225.7,596.1,1225.3,595.7,1224.9,595.7z M1224.1,632h-20.4v-34.7h20.4V632z"/>
		</g>
		<g>
			<path class="st2" d="M1224.9,717.2H1203c-0.4,0-0.8,0.3-0.8,0.8v36.2c0,0.4,0.3,0.8,0.8,0.8h21.9c0.4,0,0.8-0.3,0.8-0.8V718     C1225.7,717.6,1225.3,717.2,1224.9,717.2z M1224.1,753.5h-20.4v-34.7h20.4V753.5z"/>
		</g>
		<g>
			<path class="st2" d="M1128.4,535h-21.9c-0.4,0-0.8,0.3-0.8,0.8V572c0,0.4,0.4,0.8,0.8,0.8h21.9c0.4,0,0.8-0.3,0.8-0.8v-36.2     C1129.2,535.4,1128.9,535,1128.4,535z M1127.6,571.3h-20.4v-34.7h20.4V571.3z"/>
		</g>
		<g>
			<path class="st2" d="M1160.6,535h-21.9c-0.4,0-0.8,0.3-0.8,0.8V572c0,0.4,0.3,0.8,0.8,0.8h21.9c0.4,0,0.8-0.3,0.8-0.8v-36.2     C1161.3,535.4,1161,535,1160.6,535z M1159.8,571.3h-20.4v-34.7h20.4V571.3z"/>
		</g>
		<g>
			<path class="st2" d="M1064.1,535h-21.9c-0.4,0-0.8,0.3-0.8,0.8V572c0,0.4,0.3,0.8,0.8,0.8h21.9c0.4,0,0.8-0.3,0.8-0.8v-36.2     C1064.9,535.4,1064.6,535,1064.1,535z M1063.3,571.3H1043v-34.7h20.4V571.3z"/>
		</g>
		<g>
			<path class="st2" d="M1096.3,595.7h-21.9c-0.4,0-0.8,0.3-0.8,0.8v36.2c0,0.4,0.3,0.8,0.8,0.8h21.9c0.4,0,0.8-0.4,0.8-0.8v-36.2     C1097.1,596.1,1096.7,595.7,1096.3,595.7z M1095.5,632h-20.4v-34.7h20.4V632z"/>
		</g>
		<g>
			<path class="st2" d="M1128.4,595.7h-21.9c-0.4,0-0.8,0.3-0.8,0.8v36.2c0,0.4,0.4,0.8,0.8,0.8h21.9c0.4,0,0.8-0.4,0.8-0.8v-36.2     C1129.2,596.1,1128.9,595.7,1128.4,595.7z M1127.6,632h-20.4v-34.7h20.4V632z"/>
		</g>
		<g>
			<path class="st2" d="M1128.4,656.5h-21.9c-0.4,0-0.8,0.3-0.8,0.8v36.2c0,0.4,0.4,0.8,0.8,0.8h21.9c0.4,0,0.8-0.3,0.8-0.8v-36.2     C1129.2,656.8,1128.9,656.5,1128.4,656.5z M1127.6,692.7h-20.4V658h20.4V692.7z"/>
		</g>
		<g>
			<path class="st2" d="M1160.6,656.5h-21.9c-0.4,0-0.8,0.3-0.8,0.8v36.2c0,0.4,0.3,0.8,0.8,0.8h21.9c0.4,0,0.8-0.3,0.8-0.8v-36.2     C1161.3,656.8,1161,656.5,1160.6,656.5z M1159.8,692.7h-20.4V658h20.4V692.7z"/>
		</g>
		<g>
			<path class="st2" d="M1096.3,717.2h-21.9c-0.4,0-0.8,0.3-0.8,0.8v36.2c0,0.4,0.3,0.8,0.8,0.8h21.9c0.4,0,0.8-0.3,0.8-0.8V718     C1097.1,717.6,1096.7,717.2,1096.3,717.2z M1095.5,753.5h-20.4v-34.7h20.4V753.5z"/>
		</g>
		<g>
			<path class="st2" d="M1160.6,717.2h-21.9c-0.4,0-0.8,0.3-0.8,0.8v36.2c0,0.4,0.3,0.8,0.8,0.8h21.9c0.4,0,0.8-0.3,0.8-0.8V718     C1161.3,717.6,1161,717.2,1160.6,717.2z M1159.8,753.5h-20.4v-34.7h20.4V753.5z"/>
		</g>
		<g>
			<path class="st2" d="M1064.1,717.2h-21.9c-0.4,0-0.8,0.3-0.8,0.8v36.2c0,0.4,0.3,0.8,0.8,0.8h21.9c0.4,0,0.8-0.3,0.8-0.8V718     C1064.9,717.6,1064.6,717.2,1064.1,717.2z M1063.3,753.5H1043v-34.7h20.4V753.5z"/>
		</g>
	</g>
	<g>
		<g>
			<path class="st0" d="M219.6,815.9h5.4v-5.4C223.1,812.2,221.3,814,219.6,815.9z"/>
		</g>
	</g>
	<g>
		<g>
			<path class="st2" d="M225,723.4c-0.1,0-0.2,0-0.3-0.1l-8.8-4c-0.2-0.1-0.3-0.2-0.4-0.4l-9.9-20.1c-0.2-0.3-0.1-0.7,0.2-0.9     c0.2-0.2,0.6-0.3,0.9-0.1l18.8,10.2c0.3,0.1,0.4,0.4,0.4,0.7v13.9c0,0.3-0.1,0.5-0.4,0.7C225.3,723.4,225.1,723.4,225,723.4z      M216.7,718l7.5,3.4v-12.2l-16.2-8.8L216.7,718z"/>
		</g>
	</g>
	<g>
		<g>
			<polygon class="st3" points="235.2,755.3 240.2,757.5 240.2,747.6 228.8,742.4    "/>
		</g>
		<g>
			<path class="st2" d="M241.4,746.4l-13.9-6.3c-0.3-0.1-0.7-0.1-0.9,0.2c-0.2,0.2-0.3,0.6-0.1,0.9l7.5,15.1     c0.1,0.2,0.2,0.3,0.4,0.4l6.4,2.8c0.1,0,0.2,0.1,0.3,0.1c0.1,0,0.3,0,0.4-0.1c0.2-0.1,0.4-0.4,0.4-0.7v-11.6     C241.8,746.8,241.6,746.5,241.4,746.4z M240.2,757.5l-5-2.2l-6.4-12.9l11.4,5.2V757.5z"/>
		</g>
	</g>
	<g>
		<g>
			<path class="st2" d="M256.8,875C256.8,875,256.8,875,256.8,875c-0.4,0-0.8,0-1.2,0c-8.7-0.4-16.5-4.6-21.4-11.7     c-1.1-1.5-2-3.2-2.8-4.9c-0.1-0.2-0.1-0.5,0.1-0.7c0.1-0.2,0.4-0.4,0.7-0.4h21.3c0.1,0,0.2,0,0.2,0c3,0.9,6.4,0.4,8.9-1.4     c3.9-2.8,5.4-8,3.6-12.4c-0.3-0.7-0.6-1.3-1.1-1.9c-2.2-3.1-6.1-4.8-9.9-4.3c-0.2,0-0.5,0-0.6-0.2c-0.2-0.1-0.3-0.4-0.3-0.6     v-15.7c0-0.4,0.3-0.8,0.7-0.8c9.5-0.6,18.8,3.9,24.2,11.6c2.4,3.4,3.9,7.2,4.6,11.4c1.7,10.5-2.6,20.9-11.3,27     C267.9,873.2,262.5,875,256.8,875z M233.4,858.8c0.6,1.2,1.3,2.4,2.1,3.6c4.7,6.7,12,10.7,20.2,11c5.7,0.2,11.3-1.4,16-4.7     c8.2-5.8,12.3-15.5,10.7-25.4c-0.6-3.9-2.1-7.6-4.4-10.8c-5-7.1-13.3-11.3-22.1-11v14.1c4.2-0.3,8.2,1.6,10.6,5     c0.5,0.7,0.9,1.4,1.2,2.2c2.1,5.1,0.4,11.1-4.1,14.3c-2.9,2.1-6.7,2.7-10.2,1.7H233.4z"/>
		</g>
	</g>
	<g>
		<g>
			<path class="st2" d="M368.4,875L368.4,875c-2.2,0-4.4-0.3-6.5-0.8c-8.4-2-15.3-7.7-18.7-15.6c-2.2-4.9-2.9-10.3-2-15.6     c0.6-3.9,2.1-7.6,4.3-10.9c2.9-4.4,7-7.8,11.7-9.9c3.5-1.6,7.3-2.4,11.1-2.4c10.9,0,20.8,6.4,25.2,16.4c0.9,2.1,1.6,4.3,2,6.7     c2,12.4-4.6,24.5-16,29.6C376,874.2,372.3,875,368.4,875z M368.3,821.5c-3.6,0-7.2,0.7-10.5,2.2c-4.5,2-8.3,5.2-11.1,9.3     c-2.1,3.1-3.5,6.6-4.1,10.3c-0.8,5-0.2,10,1.9,14.7c3.3,7.4,9.7,12.8,17.7,14.7c5.6,1.3,11.4,0.8,16.6-1.5     c10.8-4.8,17-16.3,15.1-27.9c-0.4-2.3-1-4.4-1.9-6.4C388,827.5,378.6,821.5,368.3,821.5z M368.4,859.3c-4.7,0-9-2.8-10.9-7.1     c-1.3-3-1.4-6.3-0.1-9.4c1.2-2.8,3.4-5,6.1-6.3c1.5-0.7,3.1-1,4.8-1c4.7,0,9,2.8,10.9,7.1c0,0,0.1,0.1,0.1,0.2     c2.5,6-0.2,12.9-6.1,15.5C371.6,859,370,859.3,368.4,859.3z M368.3,837.1c-1.4,0-2.8,0.3-4.2,0.9c-2.4,1.1-4.3,3-5.3,5.4     c-1.1,2.6-1.1,5.5,0.1,8.1c1.6,3.7,5.3,6.1,9.4,6.1c1.4,0,2.8-0.3,4.2-0.9c5.1-2.2,7.5-8.3,5.3-13.4l0.6-0.5l-0.7,0.3     C376.1,839.6,372.4,837.1,368.3,837.1z"/>
		</g>
	</g>
	<g>
		<g>
			<path class="st3" d="M340.5,694c-0.4,0-0.8-0.3-0.8-0.8v-21.6h-43.5v21.6c0,0.4-0.3,0.8-0.8,0.8h-25.2l0,32l69.5,37.8v-45.8     c0-0.4,0.3-0.8,0.8-0.8h23.3l-3.2-23.2H340.5z"/>
		</g>
		<g>
			<path class="st2" d="M362.1,693.1c-0.1-0.4-0.4-0.7-0.8-0.7h-20v-21.6c0-0.4-0.3-0.8-0.8-0.8h-45.1c-0.4,0-0.8,0.3-0.8,0.8v21.6     h-25.2c-0.4,0-0.8,0.3-0.8,0.8l0,33.2c0,0.3,0.2,0.5,0.4,0.7l71,38.6c0.1,0.1,0.2,0.1,0.4,0.1c0.1,0,0.3,0,0.4-0.1     c0.2-0.1,0.4-0.4,0.4-0.7v-46.3h23.4c0.2,0,0.4-0.1,0.6-0.3c0.1-0.2,0.2-0.4,0.2-0.6L362.1,693.1z M340.5,717.2     c-0.4,0-0.8,0.3-0.8,0.8v45.8L270.3,726l0-32h25.2c0.4,0,0.8-0.3,0.8-0.8v-21.6h43.5v21.6c0,0.4,0.3,0.8,0.8,0.8h20.1l3.2,23.2     H340.5z"/>
		</g>
	</g>
	<g>
		<g>
			<path class="st2" d="M352.5,791.8c-0.4,0-0.8-0.3-0.8-0.8c0-0.4,0.3-0.8,0.8-0.8l9.2-0.3c0.3,0,0.5,0.1,0.7,0.3     c0.2,0.2,0.2,0.5,0.1,0.8l-0.1,0.2c-0.1,0.3-0.4,0.5-0.7,0.5L352.5,791.8C352.5,791.8,352.5,791.8,352.5,791.8z"/>
		</g>
	</g>
	<g>
		<g>
			<path class="st2" d="M347.9,791.9c-0.2,0-0.4-0.1-0.5-0.2c-0.2-0.1-0.2-0.3-0.2-0.6V791c0-0.4,0.3-0.8,0.8-0.8l4.6-0.1     c0,0,0,0,0,0c0.4,0,0.8,0.3,0.8,0.8c0,0.4-0.3,0.8-0.8,0.8L347.9,791.9C347.9,791.9,347.9,791.9,347.9,791.9z"/>
		</g>
	</g>
	<g>
		<g>
			<path class="st2" d="M347.9,791.8c-0.2,0-0.4-0.1-0.5-0.2c-0.1-0.1-0.2-0.3-0.2-0.6v-0.4c0-0.4,0.3-0.8,0.8-0.8h13.8     c0.4,0,0.8,0.3,0.8,0.8c0,0.4-0.3,0.8-0.8,0.8l-9.2,0.3L347.9,791.8C347.9,791.8,347.9,791.8,347.9,791.8z"/>
		</g>
	</g>
	<g>
		<g>
			<path class="st9" d="M359.3,190.8c-0.3-0.4-0.7-0.8-1.1-1.1c-1.6-1.4-3.7-2.2-6-2.2c-5.2,0-9.4,4.2-9.4,9.4     c0,5.2,4.2,9.4,9.4,9.4c4.9,0,8.9-3.8,9.3-8.6c0-0.3,0-0.5,0-0.8s0-0.5,0-0.8C361.3,194,360.5,192.2,359.3,190.8z"/>
		</g>
		<g>
			<path class="st7" d="M512.3,754.6C512.3,754.6,512.3,754.6,512.3,754.6L512.3,754.6h-32.7v59.6l30.8-0.9c0.3,0,0.5,0.1,0.7,0.3     l6.9,10c0.2,0.3,0.2,0.8-0.2,1.1l-29.5,23.5h100.8v-93.6h-32.7H512.3z"/>
		</g>
		<g>
			<path class="st9" d="M516.4,69.1c0.3,0,0.5,0,0.8,0c0.3,0,0.5,0,0.8,0c0.4,0,0.7-0.1,1.1-0.1c0.5-0.1,1-0.3,1.5-0.4     c3.5-1.4,6-4.8,6-8.7c0-5.2-4.2-9.4-9.4-9.4s-9.4,4.2-9.4,9.4C507.8,64.6,511.6,68.7,516.4,69.1z"/>
		</g>
		<g>
			<path class="st9" d="M808.5,151.3c-5.4,0-9.9,4-10.4,9.3h10.4h10.4C818.3,155.4,813.9,151.3,808.5,151.3z"/>
		</g>
		<g>
			<path class="st6" d="M574.9,196c-1.2-2.1-2.7-4.1-4.6-5.7c-0.4-0.4-0.9-0.7-1.3-1.1c-3.5-2.6-7.9-4.2-12.7-4.2h-1.9h-1.6h-2.9h-2     H518h-1.6h-4.1c-3,0-5.8,0.6-8.4,1.7c-0.5,0.2-1.1,0.5-1.6,0.8c-3.6,1.9-6.6,4.9-8.5,8.4c-0.3,0.5-0.5,1-0.8,1.6     c-1.2,2.7-1.9,5.6-1.9,8.7v44c0,11.7,9.5,21.2,21.2,21.2h44c11,0,20.1-8.4,21.1-19.3h-48c-0.4,0-0.8-0.3-0.8-0.8v-46.3     c0-0.4,0.3-0.8,0.8-0.8h48c-0.2-2.4-0.8-4.7-1.8-6.8C575.4,197,575.1,196.5,574.9,196z"/>
		</g>
		<g>
			<path class="st1" d="M530.2,250.6h47.3c0-0.1,0-0.2,0-0.3v-44c0-0.1,0-0.2,0-0.3h-47.3V250.6z"/>
		</g>
		<g>
			<path class="st2" d="M930,196.1l-59.3-35.3c-0.1-0.1-0.3-0.1-0.4-0.1h-0.2h-49.6c-0.6-6.1-5.6-10.8-11.8-10.9L522.6,50.2     c-1.6-0.9-3.4-1.4-5.4-1.4c-3.9,0-7.4,2.1-9.3,5.2L348.5,186.5c-4.2,1.5-7.3,5.5-7.3,10.3c0,6,4.9,10.9,10.9,10.9     c5.8,0,10.5-4.5,10.9-10.2h28.6h68.8h0h30.9c-1.1,2.7-1.7,5.6-1.7,8.7v44c0,12.3,9.8,22.3,22,22.8v52.7v53.5v53.5v53.5v53.5v53.5     v53.5v53.5v52.7h-32.7c-0.4,0-0.8,0.3-0.8,0.8v61.2c0,0.2,0.1,0.4,0.2,0.6c0.2,0.1,0.4,0.2,0.6,0.2l31.2-0.9l6.2,9l-30.7,24.4     c-0.3,0.2-0.4,0.6-0.3,0.9c0.1,0.3,0.4,0.5,0.7,0.5h103.8c0.4,0,0.8-0.3,0.8-0.8v-95.2c0-0.4-0.3-0.8-0.8-0.8h-32.7v-52.7v-53.5     v-53.5v-53.5v-53.5v-53.5v-53.5v-53.5V273c11.5-0.4,20.9-9.3,21.9-20.8c0-0.2,0.1-0.5,0.1-0.7c0,0,0,0,0,0v0l0-0.4     c0-0.3,0-0.5,0-0.8v-44c0-0.3,0-0.5,0-0.8l0-0.2c0,0,0-0.1,0-0.1c0-0.1,0-0.2,0-0.3c0-0.2,0-0.3-0.1-0.5     c-0.2-2.4-0.8-4.7-1.6-6.8h46.3h61.6h0h0h61.6h0h61.6h0h61.6h29.3v137.7c0,0.4,0.3,0.8,0.8,0.8c0.4,0,0.8-0.3,0.8-0.8V197.6h28.8     c0,0,0,0,0,0c0.4,0,0.8-0.3,0.8-0.8C930.5,196.5,930.3,196.2,930,196.1z M517.2,50.4c5.2,0,9.4,4.2,9.4,9.4c0,4-2.5,7.4-6,8.7     c-0.5,0.2-1,0.3-1.5,0.4c-0.4,0.1-0.7,0.1-1.1,0.1c-0.3,0-0.5,0-0.8,0c-0.3,0-0.5,0-0.8,0c-4.8-0.4-8.6-4.4-8.6-9.3     C507.8,54.6,512,50.4,517.2,50.4z M518.8,145.7h22.6l11,37.8h-3.7L518.8,145.7z M546.7,183.5H518v-36.3L546.7,183.5z M518,144.1     V70.6c0.5,0,1-0.1,1.5-0.2l21.4,73.7H518z M361.5,197.6c-0.4,4.8-4.4,8.6-9.3,8.6c-5.2,0-9.4-4.2-9.4-9.4c0-5.2,4.2-9.4,9.4-9.4     c2.3,0,4.4,0.8,6,2.2c0.4,0.3,0.8,0.7,1.1,1.1c1.2,1.4,2,3.3,2.2,5.3c0,0.3,0,0.5,0,0.8S361.5,197.3,361.5,197.6z M390.8,196H363     c-0.2-2.4-1.1-4.6-2.6-6.4l30.4-30.4V196z M392.4,196v-37.4l65.1,37.4H392.4z M459.6,195.4l-65.1-37.4h65.1V195.4z M460.8,156.6     C460.7,156.6,460.7,156.6,460.8,156.6c-0.2-0.1-0.3-0.1-0.4-0.1h-68.8c0,0-0.1,0-0.1,0c-0.1,0-0.1,0-0.2,0c0,0,0,0,0,0     c0,0-0.1,0-0.1,0.1c0,0-0.1,0.1-0.1,0.1c0,0,0,0,0,0c0,0,0,0,0,0l0,0l-31.8,31.8c-1.9-1.7-4.4-2.7-7.1-2.7c-0.2,0-0.3,0-0.4,0     L506.6,57.1c-0.2,0.8-0.3,1.7-0.3,2.6c0,5.8,4.5,10.5,10.2,10.9v74.3v38.6h-4.1c-3.5,0-6.9,0.8-9.9,2.3L460.8,156.6     C460.8,156.7,460.8,156.6,460.8,156.6z M461.2,196v-37.2l39.7,27.8c-3.8,2.2-6.9,5.5-8.9,9.4H461.2z M589.1,754.6v93.6H488.3     l29.5-23.5c0.3-0.3,0.4-0.7,0.2-1.1l-6.9-10c-0.2-0.2-0.4-0.3-0.7-0.3l-30.8,0.9v-59.6h32.7h0c0,0,0,0,0,0h44H589.1z      M513.1,323.6v-50.5h41.6L513.1,323.6z M555.5,274.5V325H514L555.5,274.5z M554.7,326.6l-41.6,50.5v-50.5H554.7z M555.5,328v50.5     H514L555.5,328z M554.7,380.1l-41.6,50.5v-50.5H554.7z M555.5,381.5V432H514L555.5,381.5z M554.7,433.6l-41.6,50.5v-50.5H554.7z      M555.5,435v50.5H514L555.5,435z M554.7,487.1l-41.6,50.5v-50.5H554.7z M555.5,488.5V539H514L555.5,488.5z M554.7,540.6     l-41.6,50.5v-50.5H554.7z M555.5,542v50.5H514L555.5,542z M554.7,594.1l-41.6,50.5v-50.5H554.7z M555.5,595.5v50.5H514     L555.5,595.5z M554.7,647.6l-41.6,50.5v-50.5H554.7z M555.5,649v50.5H514L555.5,649z M554.7,701.1l-41.6,50.5v-50.5H554.7z      M555.5,702.5v50.5H514L555.5,702.5z M577.5,206.3v44c0,0.1,0,0.2,0,0.3h-47.3v-44.7h47.3C577.5,206,577.5,206.2,577.5,206.3z      M577.4,204.4h-48c-0.4,0-0.8,0.3-0.8,0.8v46.3c0,0.4,0.3,0.8,0.8,0.8h48c-1,10.9-10.1,19.3-21.1,19.3h-44     c-11.7,0-21.2-9.5-21.2-21.2v-44c0-3.1,0.7-6,1.9-8.7c0.2-0.5,0.5-1.1,0.8-1.6c2-3.6,4.9-6.5,8.5-8.4c0.5-0.3,1.1-0.5,1.6-0.8     c2.6-1.1,5.4-1.7,8.4-1.7h4.1h1.6h29.9h2h2.9h1.6h1.9c4.7,0,9.1,1.6,12.7,4.2c0.5,0.3,0.9,0.7,1.3,1.1c1.8,1.6,3.4,3.5,4.6,5.7     c0.3,0.5,0.5,1,0.8,1.6C576.6,199.7,577.2,202,577.4,204.4z M622.8,196h-46.2c-1.2-2.4-2.9-4.6-4.8-6.5l51.1-26.8V196z      M684.5,196h-57.9l57.9-33.2V196z M624.4,195.4v-33.2h57.9L624.4,195.4z M746.1,196h-57.9l57.9-33.2V196z M686,195.4v-33.2h57.9     L686,195.4z M746.9,160.7h-61.6h-61.6c-0.1,0-0.2,0-0.3,0.1c0,0,0,0,0,0l-52.7,27.7c-3.9-3.1-8.8-5-14.2-5H554L521,70     c4.2-1.5,7.1-5.5,7.1-10.2c0-2.5-0.9-4.9-2.3-6.7l279.4,97.2c-4.7,1.3-8.2,5.4-8.7,10.4H746.9z M747.6,162.2h49.6h8.3l-57.9,33.2     V162.2z M807.7,196h-57.9l57.9-33.2V196z M808.5,160.7h-10.4c0.6-5.3,5-9.3,10.4-9.3c5.4,0,9.9,4,10.4,9.3H808.5z M809.3,162.2     h10.5h47.4l-57.9,33.2V162.2z M869.3,196h-57.9l57.9-33.2V196z M870.9,196v-33.3l56,33.3H870.9z"/>
		</g>
	</g>
	<g>
		<g>
			<path class="st0" d="M443.1,816.9c-0.3,0-0.6-0.2-0.7-0.4l-2.4-4.8l-14.6-3.1l0.7,14.8l19.4,29.8l25.1-8.9l37.6-29.3L443.1,816.9     z"/>
		</g>
		<g>
			<path class="st6" d="M417.2,843.1c0.1,1.5,0.2,2.9,0.2,4.4c0,7.9-1.9,15.6-5.4,22.6l8.2,2.1l6.8-3.7c0,0,0,0,0,0l3.9-2.2     l-3.3-27.4l-2.1-1.1c0,0,0,0,0,0l-10.6-5.9C416.1,835.4,416.9,839.2,417.2,843.1z"/>
		</g>
		<g>
			<path class="st10" d="M471.2,845.7l-25.8,9.1c-0.2,0.1-0.4,0-0.6,0c0,0,0,0-0.1,0c-0.1-0.1-0.2-0.1-0.3-0.2l-18.3-28.1l0.4,10     l2,1.1c0.2,0.1,0.4,0.3,0.4,0.6l3.4,28.4c0,0.3-0.1,0.6-0.4,0.8l-4,2.2l0.1,1.4l20.8,6.6l67.3-53.5l-5.9-8.7l-38.9,30.3     C471.3,845.6,471.3,845.7,471.2,845.7z"/>
		</g>
		<g>
			<path class="st2" d="M425,822.9c0.3-0.1,0.7,0,0.9,0.3l19.5,30L426,823.4l-0.7-14.8l14.6,3.1l2.4,4.8c0.1,0.3,0.4,0.4,0.7,0.4     l65.1-1.9l-37.6,29.3l39.5-30.7c0.2-0.1,0.4-0.2,0.6-0.2c0.1,0,0.2,0.1,0.3,0.1c-0.1-0.1-0.3-0.2-0.5-0.2l-66.9,2l-2.3-4.7     c-0.1-0.2-0.3-0.4-0.5-0.4l-16-3.4c-0.2-0.1-0.5,0-0.7,0.2c-0.2,0.2-0.3,0.4-0.3,0.6l0.7,16C424.4,823.3,424.7,823,425,822.9z"/>
		</g>
		<g>
			<polygon class="st2" points="471.4,845.6 510.3,815.3 510.3,815.3    "/>
		</g>
		<g>
			<path class="st2" d="M444.7,854.8C444.7,854.8,444.7,854.8,444.7,854.8C444.7,854.8,444.7,854.8,444.7,854.8z"/>
		</g>
		<g>
			<path class="st2" d="M511.1,813.7c0,0-0.1-0.1-0.1-0.1C511,813.6,511.1,813.7,511.1,813.7C511.1,813.7,511.1,813.7,511.1,813.7z"/>
		</g>
		<g>
			<path class="st2" d="M444.7,854.8c-0.1-0.1-0.2-0.1-0.3-0.2C444.5,854.6,444.6,854.7,444.7,854.8z"/>
		</g>
		<g>
			<path class="st2" d="M518,823.7l-6.8-10c0,0,0,0,0,0c0.2,0.3,0.2,0.8-0.1,1.1l-0.7,0.5l5.9,8.7l-67.3,53.5l-20.8-6.6l-0.1-1.4     l-1.5,0.8l0.1,1.2c0,0.3,0.2,0.6,0.5,0.7l21.7,6.8c0.1,0,0.2,0,0.2,0c0.2,0,0.3-0.1,0.5-0.2l68.2-54.2     C518.1,824.5,518.2,824,518,823.7z"/>
		</g>
		<g>
			<path class="st2" d="M445.3,854.8c-0.1,0-0.2,0-0.3,0c-0.1,0-0.2,0-0.3-0.1C444.9,854.9,445.1,854.9,445.3,854.8z"/>
		</g>
		<g>
			<path class="st2" d="M510.9,813.5C510.9,813.5,510.9,813.6,510.9,813.5C510.9,813.6,510.9,813.5,510.9,813.5z"/>
		</g>
		<g>
			<path class="st2" d="M426.6,836.5l-0.4-10l18.3,28.1L424.6,824c-0.1-0.1-0.1-0.3-0.1-0.4l0.5,11.9l3.6,2L426.6,836.5z"/>
		</g>
		<g>
			<polygon class="st2" points="426.9,868.4 430.8,866.2 426.9,868.4    "/>
		</g>
		<g>
			<polygon class="st2" points="427.5,838.8 425.4,837.6 425.5,837.7    "/>
		</g>
		<g>
			<path class="st2" d="M444.4,854.5c0.1,0.1,0.2,0.2,0.3,0.2c0,0,0,0,0.1,0c0.1,0,0.2,0.1,0.3,0.1c0.1,0,0.2,0,0.3,0l25.8-9.1     c0.1,0,0.2-0.1,0.2-0.1l38.9-30.3l0,0l0.7-0.5c0.3-0.2,0.4-0.7,0.1-1.1c0-0.1-0.1-0.1-0.1-0.1c0,0,0,0-0.1-0.1     c-0.1-0.1-0.2-0.1-0.3-0.1c-0.2,0-0.4,0-0.6,0.2l-39.5,30.7l-25.1,8.9l-19.5-30c-0.2-0.3-0.6-0.4-0.9-0.3     c-0.3,0.1-0.6,0.4-0.5,0.8c0,0.1,0,0.3,0.1,0.4L444.4,854.5z"/>
		</g>
		<g>
			<polygon class="st2" points="428.1,869.5 428.1,869.5 432,867.4    "/>
		</g>
		<g>
			<path class="st2" d="M426.9,868.4l-6.8,3.7L412,870c3.6-6.9,5.4-14.7,5.4-22.6c0-1.4-0.1-2.9-0.2-4.4c-0.3-3.9-1.1-7.7-2.4-11.4     l10.6,5.9c-0.2-0.1-0.4-0.4-0.4-0.6l-0.1-1.4l-11.2-6.3c-0.3-0.2-0.6-0.1-0.9,0.1c-0.2,0.2-0.3,0.6-0.2,0.9     c1.6,4.1,2.6,8.5,3,12.9c0.1,1.4,0.2,2.9,0.2,4.2c0,7.9-2,15.8-5.7,22.7c-0.1,0.2-0.1,0.5,0,0.7c0.1,0.2,0.3,0.4,0.5,0.4l9.4,2.4     c0.1,0,0.1,0,0.2,0c0.1,0,0.3,0,0.4-0.1l5.9-3.3l-0.1-1.3C426.5,868.8,426.6,868.5,426.9,868.4z"/>
		</g>
		<g>
			<path class="st2" d="M428.1,869.5l4-2.2c0.3-0.2,0.4-0.5,0.4-0.8l-3.4-28.4c0-0.2-0.2-0.5-0.4-0.6l-3.6-2l0.1,1.4     c0,0.3,0.2,0.5,0.4,0.6l2.1,1.2l3.3,27.4l-3.9,2.2c-0.3,0.1-0.4,0.4-0.4,0.7l0.1,1.3L428.1,869.5L428.1,869.5z"/>
		</g>
	</g>
	<g>
		<g>
			<path class="st2" d="M262.1,710h-12.3c-1.7,0-3.1-1.4-3.1-3.1v-1.4c0-1.7,1.4-3.1,3.1-3.1h12.3c1.7,0,3.1,1.4,3.1,3.1v1.4     C265.2,708.6,263.8,710,262.1,710z M249.8,704c-0.8,0-1.5,0.7-1.5,1.5v1.4c0,0.8,0.7,1.5,1.5,1.5h12.3c0.8,0,1.5-0.7,1.5-1.5     v-1.4c0-0.8-0.7-1.5-1.5-1.5H249.8z"/>
		</g>
	</g>
	<g>
		<g>
			<polygon class="st0" points="153.3,816.7 100.6,816.7 100.6,857.2 112.8,857.2 133.3,836.7    "/>
		</g>
		<g>
			<polygon class="st0" points="241.2,816.7 199.5,816.7 178.9,837.2 158.9,857.2 200.7,857.2 221.2,836.7    "/>
		</g>
		<g>
			<polygon class="st8" points="197.3,816.7 155.5,816.7 141.8,830.4 115,857.2 156.7,857.2 177.3,836.7    "/>
		</g>
		<g>
			<polygon class="st8" points="222.9,837.2 202.9,857.2 254.3,857.2 254.3,816.7 243.4,816.7    "/>
		</g>
		<g>
			<path d="M255.1,815.1h-12h-43.9h-43.9H99.8c-0.4,0-0.8,0.3-0.8,0.8V858c0,0.4,0.4,0.8,0.8,0.8h13.3h33.1l-37.7,48.5     c-0.3,0.3-0.2,0.8,0.1,1.1c0.1,0.1,0.3,0.2,0.5,0.2c0.2,0,0.5-0.1,0.6-0.3l38.4-49.5h8.9H201h5.9l33.5,49.4     c0.2,0.2,0.4,0.3,0.6,0.3c0.2,0,0.3,0,0.4-0.1c0.4-0.2,0.5-0.7,0.2-1.1l-32.9-48.6h46.3c0.4,0,0.8-0.3,0.8-0.8v-42.1     C255.9,815.5,255.5,815.1,255.1,815.1z M112.8,857.2h-12.2v-40.5h52.7l-20,20L112.8,857.2z M156.7,857.2H115l26.8-26.8l13.7-13.7     h41.7l-20,20L156.7,857.2z M200.7,857.2h-41.7l20-20l20.5-20.5h41.7l-20,20L200.7,857.2z M254.3,857.2h-51.5l20-20l20.5-20.5     h10.9V857.2z"/>
		</g>
	</g>
	<g>
		<g>
			<path class="st2" d="M295.4,532.5h-33.3c-0.4,0-0.8-0.3-0.8-0.8v-56c0-0.4,0.4-0.8,0.8-0.8h33.3c0.4,0,0.8,0.3,0.8,0.8v56     C296.2,532.1,295.9,532.5,295.4,532.5z M262.9,530.9h31.8v-54.4h-31.8V530.9z"/>
		</g>
	</g>
	<g>
		<g>
			<path class="st2" d="M295.4,613.2h-33.3c-0.4,0-0.8-0.3-0.8-0.8v-56c0-0.4,0.4-0.8,0.8-0.8h33.3c0.4,0,0.8,0.3,0.8,0.8v56     C296.2,612.9,295.9,613.2,295.4,613.2z M262.9,611.7h31.8v-54.4h-31.8V611.7z"/>
		</g>
	</g>
	<g>
		<g>
			<path class="st2" d="M262.1,683.7h-12.3c-1.7,0-3.1-1.4-3.1-3.1v-1.4c0-1.7,1.4-3.1,3.1-3.1h12.3c1.7,0,3.1,1.4,3.1,3.1v1.4     C265.2,682.3,263.8,683.7,262.1,683.7z M249.8,677.7c-0.8,0-1.5,0.7-1.5,1.5v1.4c0,0.8,0.7,1.5,1.5,1.5h12.3     c0.8,0,1.5-0.7,1.5-1.5v-1.4c0-0.8-0.7-1.5-1.5-1.5H249.8z"/>
		</g>
	</g>
	<g>
		<g>
			<path class="st2" d="M262.1,696.8h-12.3c-1.7,0-3.1-1.4-3.1-3.1v-1.4c0-1.7,1.4-3.1,3.1-3.1h12.3c1.7,0,3.1,1.4,3.1,3.1v1.4     C265.2,695.5,263.8,696.8,262.1,696.8z M249.8,690.8c-0.8,0-1.5,0.7-1.5,1.5v1.4c0,0.8,0.7,1.5,1.5,1.5h12.3     c0.8,0,1.5-0.7,1.5-1.5v-1.4c0-0.8-0.7-1.5-1.5-1.5H249.8z"/>
		</g>
	</g>
	<g>
		<g>
			<path class="st2" d="M373.9,613.2h-33.3c-0.4,0-0.8-0.3-0.8-0.8v-56c0-0.4,0.3-0.8,0.8-0.8h33.3c0.4,0,0.8,0.3,0.8,0.8v56     C374.6,612.9,374.3,613.2,373.9,613.2z M341.3,611.7h31.8v-54.4h-31.8V611.7z"/>
		</g>
	</g>
	<g>
		<g>
			<polygon class="st4" points="270.3,692.4 294.7,692.4 294.7,671.6 270.3,671.6    "/>
		</g>
		<g>
			<path class="st4" d="M356.9,671.6l-15.6,0v20.8h19.1l-2.8-20.2C357.6,672,357.1,671.6,356.9,671.6z"/>
		</g>
		<g>
			<rect x="262.9" y="638" class="st4" width="31.8" height="21.8"/>
		</g>
		<g>
			<path class="st4" d="M341.3,659.8h15.6c6,0,11.6,4.9,12.4,10.9l3,21.8h0.7V638h-31.8V659.8z"/>
		</g>
		<g>
			<path class="st2" d="M295.4,636.4h-33.3c-0.4,0-0.8,0.3-0.8,0.8v23.3c0,0.4,0.4,0.8,0.8,0.8h33.3c0.4,0,0.8-0.3,0.8-0.8v-23.3     C296.2,636.8,295.9,636.4,295.4,636.4z M294.7,659.8h-31.8V638h31.8V659.8z"/>
		</g>
		<g>
			<path class="st2" d="M295.4,670h-25.9c-0.4,0-0.8,0.3-0.8,0.8l0,22.4c0,0.2,0.1,0.4,0.2,0.6c0.1,0.1,0.3,0.2,0.6,0.2h25.9     c0.4,0,0.8-0.3,0.8-0.8v-22.4C296.2,670.4,295.9,670,295.4,670z M294.7,692.4h-24.4l0-20.8h24.4V692.4z"/>
		</g>
		<g>
			<path class="st2" d="M373.9,636.4h-33.3c-0.4,0-0.8,0.3-0.8,0.8v23.3c0,0.4,0.3,0.8,0.8,0.8h16.4c5.3,0,10.2,4.3,10.9,9.5     l3.1,22.5c0.1,0.4,0.4,0.7,0.8,0.7h2.2c0.4,0,0.8-0.3,0.8-0.8v-56C374.6,636.8,374.3,636.4,373.9,636.4z M373.1,692.4h-0.7     l-3-21.8c-0.8-6-6.4-10.9-12.4-10.9h-15.6V638h31.8V692.4z"/>
		</g>
		<g>
			<path class="st2" d="M356.9,670h-16.4c-0.4,0-0.8,0.3-0.8,0.8v22.4c0,0.4,0.3,0.8,0.8,0.8h20.8c0.2,0,0.4-0.1,0.6-0.3     c0.1-0.2,0.2-0.4,0.2-0.6l-2.9-21.1C359.1,671.1,357.8,670,356.9,670z M341.3,692.4v-20.8l15.6,0c0.2,0,0.7,0.5,0.7,0.6l2.8,20.2     H341.3z"/>
		</g>
	</g>
	<g>
		<path class="st11" d="M364,718.7h-22.7v45.9l8.8,4.8c2.1-2.2,4.9-3.4,7.9-3.4h5c2.8,0,5.5,1.1,7.5,3c-0.2-3.4-0.6-6.6-0.9-9    L364,718.7z"/>
	</g>
	<g>
		<path class="st11" d="M344.7,774.7h-3.6l0.4,0.2l-0.4-0.2H341l6.1,2.8v-0.7c0-0.3,0-0.5,0-0.8L344.7,774.7z"/>
	</g>
	<g>
		<path class="st3" d="M339.4,773.8l0.3,0.2c0,0,0,0,0-0.1V772l-69.5-37.8l0,8.2l69.5,31.7c0-0.1,0-0.1,0-0.2L339.4,773.8z"/>
	</g>
	<g>
		<path class="st3" d="M270.2,770.8l3.4,1.5c0.3,0.1,0.5,0.4,0.5,0.7v10.2l2.3,2.6c4.8,1,12.9,1.9,17.7,1.9H328l-57.7-26.4    L270.2,770.8z"/>
	</g>
	<g>
		<path class="st2" d="M331.9,787.7l-62.1-28.4c-0.2-0.1-0.5-0.1-0.7,0.1c-0.2,0.1-0.4,0.4-0.4,0.7l0,11.2c0,0.3,0.2,0.6,0.5,0.7    l3.4,1.5v10c0,0.2,0.1,0.4,0.2,0.5l2.7,3c0.1,0.1,0.3,0.2,0.4,0.2c4.8,1.1,13.3,2,18.2,2h37.5c0.4,0,0.7-0.3,0.8-0.6    C332.4,788.2,332.2,787.9,331.9,787.7z M294,787.7c-4.7,0-12.9-0.9-17.7-1.9l-2.3-2.6V773c0-0.3-0.2-0.6-0.5-0.7l-3.4-1.5l0-9.5    l57.7,26.4H294z"/>
	</g>
	<g>
		<path class="st2" d="M348.4,774.9l-3.1-1.7c-0.1-0.1-0.2-0.1-0.4-0.1h-3.6v-1.6c0-0.3-0.2-0.5-0.4-0.7l-71.1-38.6    c-0.2-0.1-0.5-0.1-0.8,0c-0.2,0.1-0.4,0.4-0.4,0.7l0,10c0,0.3,0.2,0.6,0.5,0.7l78.5,35.8c0.1,0,0.2,0.1,0.3,0.1    c0.1,0,0.3,0,0.4-0.1c0.2-0.1,0.4-0.4,0.4-0.7v-1.9c0-0.4,0-0.7,0.1-1.1C348.8,775.4,348.6,775.1,348.4,774.9z M347.1,776.8v0.7    l-6.1-2.8h0.1l-1.4-0.7c0,0.1,0,0.1,0,0.2l-69.5-31.7l0-8.2l69.5,37.8v1.9c0,0,0,0,0,0.1l1.4,0.7h3.6l2.4,1.3    C347.1,776.3,347.1,776.6,347.1,776.8z"/>
	</g>
	<g>
		<g>
			<path class="st4" d="M364,718.7h-22.7v45.9l8.8,4.8c2.1-2.2,4.9-3.4,7.9-3.4h5c2.8,0,5.5,1.1,7.5,3c-0.2-3.4-0.6-6.6-0.9-9     L364,718.7z"/>
		</g>
		<g>
			<path class="st2" d="M372.2,771c-0.2-4.2-0.6-8.4-1-11.3l-5.7-41.9c-0.1-0.4-0.4-0.7-0.8-0.7h-24.2c-0.4,0-0.8,0.3-0.8,0.8v47.1     c0,0.3,0.2,0.5,0.4,0.7l9.7,5.3c0.3,0.2,0.7,0.1,1-0.2c1.8-2.1,4.4-3.3,7.1-3.3h5c3.1,0,6,1.6,7.8,4.2c0.1,0.2,0.4,0.4,0.7,0.4     c0,0,0,0,0,0c0.4-0.1,0.8-0.3,0.8-0.8C372.3,771.2,372.2,771.1,372.2,771z M363,766h-5c-3,0-5.9,1.2-7.9,3.4l-8.8-4.8v-45.9H364     l5.6,41.2c0.3,2.3,0.6,5.6,0.9,9C368.5,767,365.8,766,363,766z"/>
		</g>
	</g>
	<g>
		<g>
			<path class="st7" d="M360.5,772.8c-1.4,0-2.7,0.5-3.8,1.4c0,0-0.1,0.1-0.1,0.1c-0.1,0.1-0.1,0.1-0.2,0.2     c-1.2,1.1-1.8,2.6-1.8,4.2c0,1,0.2,1.9,0.7,2.7c1.2,2.4,3.8,3.7,6.6,3c2.7-0.6,4.5-3,4.5-5.7c0-1.6-0.6-3.1-1.8-4.2     C363.6,773.4,362.1,772.8,360.5,772.8z"/>
		</g>
		<g>
			<path class="st6" d="M370.8,771.7c-1.7-2.6-4.6-4.2-7.8-4.2h-5c-2.8,0-5.4,1.2-7.1,3.3c-0.8,1-1.4,2.1-1.8,3.3     c-0.2,0.6-0.3,1.1-0.3,1.5c0,0.4-0.1,0.7-0.1,1.1v13.1h23.6v-13.1c0-0.9-0.1-1.8-0.4-2.6C371.7,773.3,371.3,772.5,370.8,771.7z      M362.2,786c-0.6,0.1-1.2,0.2-1.7,0.2c-2.8,0-5.3-1.5-6.6-4c-0.5-1-0.8-2.2-0.8-3.3c0-2.1,0.8-4,2.3-5.4c0.2-0.2,0.3-0.3,0.4-0.4     c1.3-1.1,3.1-1.8,4.8-1.8c2,0,3.9,0.8,5.3,2.2c1.4,1.4,2.2,3.3,2.2,5.3C368,782.2,365.6,785.2,362.2,786z"/>
		</g>
		<g>
			<path class="st2" d="M373.4,773.7c-0.3-1-0.8-2-1.3-2.9c-2-3.1-5.4-4.9-9.1-4.9h-5c-3.2,0-6.3,1.4-8.3,3.9     c-0.9,1.1-1.6,2.4-2.1,3.9c-0.2,0.6-0.3,1.2-0.4,1.8c-0.1,0.4-0.1,0.8-0.1,1.3v13.9c0,0.4,0.3,0.8,0.8,0.8h25.2     c0.4,0,0.8-0.3,0.8-0.8v-13.9C373.9,775.8,373.7,774.7,373.4,773.7z M372.3,789.9h-23.6v-13.1c0-0.4,0-0.7,0.1-1.1     c0.1-0.5,0.2-1,0.3-1.5c0.4-1.2,1-2.4,1.8-3.3c1.8-2.1,4.4-3.3,7.1-3.3h5c3.1,0,6,1.6,7.8,4.2c0.5,0.8,0.9,1.6,1.1,2.5     c0.3,0.9,0.4,1.8,0.4,2.6V789.9z"/>
		</g>
		<g>
			<path class="st2" d="M360.5,771.2c-1.8,0-3.5,0.6-4.8,1.8c-0.1,0.1-0.2,0.2-0.4,0.4c-1.5,1.4-2.3,3.3-2.3,5.4     c0,1.2,0.3,2.3,0.8,3.3c1.3,2.5,3.8,4,6.6,4c0.6,0,1.1-0.1,1.7-0.2c3.4-0.8,5.7-3.8,5.7-7.3c0-2-0.8-3.9-2.2-5.3     C364.4,772,362.5,771.2,360.5,771.2z M361.9,784.4c-2.8,0.7-5.4-0.7-6.6-3c-0.4-0.8-0.7-1.7-0.7-2.7c0-1.6,0.6-3.1,1.8-4.2     c0.1-0.1,0.1-0.1,0.2-0.2c0,0,0.1-0.1,0.1-0.1c1.1-0.9,2.4-1.4,3.8-1.4c1.6,0,3,0.6,4.2,1.7c1.1,1.1,1.8,2.6,1.8,4.2     C366.4,781.4,364.6,783.8,361.9,784.4z"/>
		</g>
	</g>
	<g>
		<polygon class="st6" points="251.8,724.2 241.8,718.8 241.8,729.4 268.7,741.7 268.7,733.4   "/>
	</g>
	<g>
		<polygon class="st2" points="240.2,717.9 225.8,710.1 225.8,722.1 233.6,725.7 240.2,728.7   "/>
	</g>
	<g>
		<path class="st4" d="M262.1,677.7h-12.3c-0.8,0-1.5,0.7-1.5,1.5v1.4c0,0.8,0.7,1.5,1.5,1.5h12.3c0.8,0,1.5-0.7,1.5-1.5v-1.4    C263.6,678.4,262.9,677.7,262.1,677.7z"/>
	</g>
	<g>
		<path class="st4" d="M262.1,690.8h-12.3c-0.8,0-1.5,0.7-1.5,1.5v1.4c0,0.8,0.7,1.5,1.5,1.5h12.3c0.8,0,1.5-0.7,1.5-1.5v-1.4    C263.6,691.5,262.9,690.8,262.1,690.8z"/>
	</g>
	<g>
		<polygon class="st6" points="265.8,768.8 268.7,770.1 268.7,760.6 241.8,748.3 241.8,758.2   "/>
	</g>
	<g>
		<polygon class="st3" points="240.2,757.5 240.2,747.6 228.8,742.4 235.2,755.3   "/>
	</g>
	<g>
		<path class="st6" d="M371.2,759.7c0.4,2.9,0.8,7.1,1,11.3c0.5,0.8,0.9,1.7,1.2,2.7c0.3,1,0.5,2,0.5,3.1V790l3.1,0c0,0,0,0,0,0    c0.3,0,0.5,0.1,0.7,0.4l2,3.2c0,0,0-0.1,0.1-0.1c0.2-0.3,0.4-0.7,0.6-1c0,0,0,0,0,0c0.2-0.4,0.3-0.7,0.4-1.1c0-0.1,0-0.1,0.1-0.2    c0.1-0.4,0.2-0.7,0.2-1.1c0-0.1,0-0.1,0-0.2c0.1-0.4,0.1-0.8,0.1-1.2v-9.5c0-1.9-0.1-4.2-0.2-6.8c-0.2-4.6-0.7-9.5-1.1-12.9    l-0.1-0.6L371,694h-8.8L371.2,759.7z"/>
	</g>
	<g>
		<path class="st6" d="M268.7,670.8c0-0.4,0.4-0.8,0.8-0.8h87.4c0.9,0,2.1,1.1,2.3,2l2.7,19.9l0.1,0.5h8.8l-3-21.6    c-0.7-5.2-5.6-9.5-10.9-9.5H251.3c-5.2,0-9.5,4.3-9.5,9.5v39.7l26.9,14.6L268.7,670.8z M265.2,706.9c0,1.7-1.4,3.1-3.1,3.1h-12.3    c-1.7,0-3.1-1.4-3.1-3.1v-1.4c0-1.7,1.4-3.1,3.1-3.1h12.3c1.7,0,3.1,1.4,3.1,3.1V706.9z M265.2,693.8c0,1.7-1.4,3.1-3.1,3.1h-12.3    c-1.7,0-3.1-1.4-3.1-3.1v-1.4c0-1.7,1.4-3.1,3.1-3.1h12.3c1.7,0,3.1,1.4,3.1,3.1V693.8z M265.2,680.6c0,1.7-1.4,3.1-3.1,3.1h-12.3    c-1.7,0-3.1-1.4-3.1-3.1v-1.4c0-1.7,1.4-3.1,3.1-3.1h12.3c1.7,0,3.1,1.4,3.1,3.1V680.6z"/>
	</g>
	<g>
		<polygon class="st6" points="331.9,787.7 337.7,790.4 347.1,790.3 347.1,779.2 217.8,720.2 217.9,720.4 227.7,740.2 241.4,746.4     241.4,746.4 269.8,759.4 269.8,759.4 331.9,787.7   "/>
	</g>
	<g>
		<path class="st4" d="M262.1,704h-12.3c-0.8,0-1.5,0.7-1.5,1.5v1.4c0,0.8,0.7,1.5,1.5,1.5h12.3c0.8,0,1.5-0.7,1.5-1.5v-1.4    C263.6,704.6,262.9,704,262.1,704z"/>
	</g>
	<g>
		<path class="st3" d="M383.7,802.2c-8.3-2.9-17.3-3.5-26-1.6l-0.7,0.2c-0.6,0.1-1.2,0.3-1.9,0.5c-0.3,0.1-0.6,0.2-0.9,0.3    c-0.3,0.1-0.6,0.2-0.9,0.3c-0.3,0.1-0.6,0.2-1,0.3c-0.3,0.1-0.6,0.2-0.8,0.3c-0.3,0.1-0.7,0.2-1,0.4c-0.3,0.1-0.5,0.2-0.8,0.3    c-0.3,0.1-0.7,0.3-1,0.4c-0.2,0.1-0.5,0.2-0.7,0.3c-0.3,0.1-0.6,0.3-1,0.5c-0.2,0.1-0.5,0.2-0.7,0.4c-0.3,0.2-0.6,0.3-0.9,0.5    c-0.2,0.1-0.5,0.3-0.7,0.4c-0.3,0.2-0.6,0.3-0.9,0.5c-0.2,0.1-0.5,0.3-0.7,0.4c-0.3,0.2-0.6,0.4-0.9,0.5c-0.2,0.1-0.5,0.3-0.7,0.4    c-0.3,0.2-0.6,0.4-0.8,0.6c-0.2,0.2-0.5,0.3-0.7,0.5c-0.3,0.2-0.5,0.4-0.8,0.6c-0.2,0.2-0.5,0.3-0.7,0.5c-0.3,0.2-0.5,0.4-0.8,0.6    c-0.2,0.2-0.4,0.4-0.7,0.5c-0.3,0.2-0.5,0.4-0.7,0.6c-0.2,0.2-0.4,0.4-0.6,0.6c-0.2,0.2-0.5,0.4-0.7,0.7c-0.2,0.2-0.4,0.4-0.6,0.6    c-0.2,0.2-0.5,0.5-0.7,0.7c-0.2,0.2-0.4,0.4-0.6,0.6c-0.2,0.2-0.4,0.5-0.6,0.7c-0.2,0.2-0.4,0.4-0.6,0.6c-0.2,0.2-0.4,0.5-0.6,0.7    c-0.2,0.2-0.4,0.4-0.6,0.7c-0.2,0.2-0.4,0.5-0.6,0.8c-0.2,0.2-0.4,0.5-0.5,0.7c-0.2,0.3-0.4,0.5-0.6,0.8c-0.2,0.2-0.3,0.5-0.5,0.7    c-0.2,0.3-0.4,0.5-0.5,0.8c-0.2,0.2-0.3,0.5-0.5,0.7c-0.2,0.3-0.3,0.5-0.5,0.8c-0.2,0.3-0.3,0.5-0.5,0.8c-0.2,0.3-0.3,0.6-0.5,0.8    c-0.1,0.3-0.3,0.5-0.4,0.8c-0.1,0.3-0.3,0.6-0.4,0.8c-0.1,0.3-0.3,0.5-0.4,0.8c-0.1,0.3-0.3,0.6-0.4,0.9c-0.1,0.3-0.2,0.5-0.4,0.8    c-0.1,0.3-0.2,0.6-0.4,0.9c-0.1,0.3-0.2,0.6-0.3,0.8c-0.1,0.3-0.2,0.6-0.3,0.9c-0.1,0.3-0.2,0.6-0.3,0.9c-0.1,0.3-0.2,0.6-0.3,0.9    c-0.1,0.3-0.2,0.6-0.3,0.9c-0.1,0.3-0.2,0.6-0.3,0.9c-0.1,0.3-0.2,0.6-0.2,0.9c-0.1,0.3-0.2,0.6-0.2,0.9c-0.1,0.3-0.1,0.6-0.2,0.9    c-0.1,0.3-0.1,0.6-0.2,0.9c-0.1,0.3-0.1,0.6-0.2,0.9c-0.1,0.3-0.1,0.6-0.2,1c0,0.3-0.1,0.6-0.1,0.9c0,0.3-0.1,0.6-0.1,1    c0,0.2,0,0.4-0.1,0.5h5.2c0-0.2,0.1-0.4,0.1-0.7c0-0.3,0.1-0.6,0.1-0.9c0.1-0.3,0.1-0.7,0.2-1c0.1-0.3,0.1-0.6,0.2-0.9    c0.1-0.3,0.1-0.7,0.2-1c0.1-0.3,0.1-0.6,0.2-0.9c0.1-0.3,0.2-0.7,0.3-1c0.1-0.3,0.2-0.6,0.2-0.9c0.1-0.3,0.2-0.7,0.3-1    c0.1-0.3,0.2-0.6,0.3-0.9c0.1-0.3,0.2-0.6,0.4-1c0.1-0.3,0.2-0.6,0.3-0.8c0.1-0.3,0.3-0.6,0.4-1c0.1-0.3,0.2-0.6,0.4-0.8    c0.1-0.3,0.3-0.6,0.5-1c0.1-0.3,0.3-0.5,0.4-0.8c0.2-0.3,0.3-0.6,0.5-0.9c0.1-0.3,0.3-0.5,0.4-0.8c0.2-0.3,0.4-0.6,0.6-0.9    c0.1-0.2,0.3-0.5,0.4-0.7c0.2-0.3,0.4-0.6,0.6-0.9c0.1-0.2,0.3-0.5,0.4-0.7c0.2-0.3,0.5-0.6,0.7-1c0.2-0.2,0.3-0.4,0.5-0.6    c0.2-0.3,0.5-0.6,0.8-1c0.2-0.2,0.3-0.4,0.4-0.6c0.3-0.3,0.6-0.7,0.9-1c0.1-0.2,0.3-0.3,0.4-0.5c0.3-0.4,0.7-0.7,1-1    c0.1-0.1,0.2-0.2,0.4-0.4c0.5-0.5,0.9-0.9,1.4-1.4c0.4-0.4,0.9-0.8,1.3-1.2c3.1-2.6,6.6-4.8,10.4-6.5c5.6-2.5,11.4-3.7,17.5-3.7    c17.1,0,32.6,10.1,39.6,25.8c0.2,0.5,0.4,1,0.6,1.5c0.1,0.2,0.1,0.3,0.2,0.5c0.1,0.3,0.3,0.7,0.4,1c0.1,0.2,0.1,0.4,0.2,0.6    c0.1,0.3,0.2,0.7,0.3,1c0.1,0.2,0.1,0.4,0.2,0.6c0.1,0.3,0.2,0.6,0.3,0.9c0.1,0.2,0.1,0.5,0.2,0.7c0.1,0.3,0.2,0.6,0.2,0.9    c0.1,0.2,0.1,0.5,0.2,0.7c0.1,0.3,0.1,0.6,0.2,0.9c0,0.2,0.1,0.5,0.1,0.7c0.1,0.3,0.1,0.6,0.1,0.9c0,0.3,0.1,0.5,0.1,0.8    c0,0.2,0.1,0.3,0.1,0.5h4.3c-0.4-4.2-1.4-8.2-2.9-12.1C407.6,817.1,397.1,806.8,383.7,802.2z"/>
	</g>
	<g>
		<path class="st7" d="M406.5,830.6c-6.7-15.1-21.6-24.8-38.1-24.8c-5.8,0-11.5,1.2-16.8,3.6c-3.6,1.6-7,3.7-10,6.2    c-0.4,0.4-0.9,0.7-1.3,1.1c-7.5,6.9-12.3,16.3-13.3,26.5c-0.7,7.2,0.4,14.5,3.3,21.1c6.7,15.1,21.6,24.8,38.1,24.8v0.8l0.1-0.8    c5.8,0,11.4-1.2,16.7-3.6c16.5-7.3,26.4-24.3,24.6-42.3C409.4,838.9,408.2,834.6,406.5,830.6z M379.5,872.6    c-3.5,1.6-7.2,2.3-11.1,2.3c-2.2,0-4.4-0.3-6.5-0.8c-8.4-2-15.3-7.7-18.7-15.6c-2.2-4.9-2.9-10.3-2-15.6c0.6-3.9,2.1-7.6,4.3-10.9    c2.9-4.4,7-7.8,11.7-9.9c3.5-1.6,7.3-2.4,11.1-2.4c10.9,0,20.8,6.4,25.2,16.4c0.9,2.1,1.6,4.3,2,6.7    C397.5,855.4,390.9,867.6,379.5,872.6z"/>
	</g>
	<g>
		<path class="st3" d="M382.7,774.9c0,0.2,0,0.5,0,0.7c0,0.1,0,0.1,0,0.2c0,0.5,0,1,0,1.5c0,0.1,0,0.2,0,0.3c0,0.5,0,0.9,0,1.4v9.5    c0,2.3-0.7,4.6-2.1,6.5l3.6,5.5l0.3,0.4c0.4,0.2,0.9,0.3,1.3,0.5c0.4,0.1,0.7,0.3,1.1,0.4c0.5,0.2,1,0.4,1.5,0.7    c0.3,0.1,0.7,0.3,1,0.4c0.5,0.2,1,0.5,1.5,0.8c0.3,0.2,0.6,0.3,0.9,0.5c0.5,0.3,1,0.6,1.5,0.9c0.3,0.2,0.5,0.3,0.8,0.5    c0.5,0.3,1,0.7,1.6,1c0.2,0.1,0.5,0.3,0.7,0.4c0.6,0.4,1.1,0.8,1.6,1.2c0.2,0.1,0.3,0.2,0.5,0.4c0.7,0.5,1.3,1,1.9,1.6    c0,0,0.1,0.1,0.1,0.1c1.3,1.2,2.6,2.4,3.8,3.7c0.1,0.1,0.2,0.3,0.4,0.4c0.5,0.5,0.9,1,1.4,1.6c0.2,0.2,0.3,0.4,0.5,0.7    c0.4,0.5,0.8,0.9,1.1,1.4c0.2,0.3,0.4,0.5,0.6,0.8c0.3,0.5,0.7,0.9,1,1.4c0.2,0.3,0.4,0.6,0.6,0.9c0.3,0.5,0.6,0.9,0.9,1.4    c0.2,0.3,0.3,0.6,0.5,0.9c0.3,0.5,0.5,0.9,0.8,1.4c0.2,0.3,0.3,0.7,0.5,1c0.2,0.5,0.5,0.9,0.7,1.4c0.2,0.3,0.3,0.7,0.4,1    c0.2,0.4,0.4,0.9,0.6,1.3l5.5,3.1l-7-10.9L382.7,774.9z"/>
	</g>
	<g>
		<path class="st0" d="M392.1,836.9c-4.2-9.4-13.5-15.5-23.8-15.5c-3.6,0-7.2,0.7-10.5,2.2c-4.5,2-8.3,5.2-11.1,9.3    c-2.1,3.1-3.5,6.6-4.1,10.3c-0.8,5-0.2,10,1.9,14.7c3.3,7.4,9.7,12.8,17.7,14.7c5.6,1.3,11.4,0.8,16.6-1.5    c10.8-4.8,17-16.3,15.1-27.9C393.6,841,393,838.9,392.1,836.9z"/>
	</g>
	<g>
		<path class="st1" d="M262.7,855.9c3.9-2.8,5.4-8,3.6-12.4c-0.3-0.7-0.6-1.3-1.1-1.9c-2.1-3-5.6-4.6-9.3-4.3v20.5    C258.3,857.9,260.7,857.3,262.7,855.9z"/>
	</g>
	<g>
		<path class="st6" d="M381.8,762.3c0,0.2,0,0.3,0,0.5c0,0.4,0.1,0.8,0.1,1.3c0,0.2,0,0.5,0.1,0.7c0.1,0.7,0.1,1.3,0.2,2    c0,0.1,0,0.2,0,0.4c0,0.6,0.1,1.2,0.1,1.9c0,0.2,0,0.4,0,0.6c0,0.7,0.1,1.3,0.1,2c0,0.1,0,0.1,0,0.2l39.9,62.4l2.6,1.4l-0.3-6.2    L381.8,762.3z"/>
	</g>
	<g>
		<path class="st6" d="M347.4,774.4c0.1-0.2,0.1-0.5,0.2-0.7c0.3-1.1,0.8-2.2,1.5-3.1l-145.5-79.1l3.2,6.5L347.4,774.4z"/>
	</g>
	<g>
		<path class="st7" d="M290.9,823.5c-7.8-11.1-20.6-17.7-34.2-17.7c-8.6,0-16.8,2.6-23.9,7.6c-0.4,0.3-0.7,0.5-1.1,0.8    c-0.1,0.1-0.2,0.1-0.2,0.2c-0.3,0.2-0.6,0.4-0.8,0.7c-0.1,0-0.1,0.1-0.2,0.1h24.6c0.4,0,0.8,0.3,0.8,0.8v4    c9.3-0.3,18.1,4.1,23.4,11.7c2.4,3.4,3.9,7.2,4.6,11.4c1.7,10.5-2.6,20.9-11.3,27c-5,3.5-10.9,5.2-17,5    c-8.7-0.4-16.5-4.6-21.4-11.7c-1-1.4-1.8-2.9-2.5-4.5h-15c1.3,4.5,3.3,8.8,6,12.6c7.8,11.1,20.6,17.7,34.1,17.7    c2.8,0,5.5-0.3,8.2-0.8c5.7-1.1,10.9-3.4,15.7-6.7c12.3-8.6,19-23.3,17.5-38.3C297.5,836.2,294.9,829.3,290.9,823.5z"/>
	</g>
	<g>
		<path class="st3" d="M304.2,840.5c-0.1-0.4-0.1-0.7-0.2-1.1c-0.1-0.4-0.1-0.8-0.2-1.1c-0.1-0.4-0.1-0.7-0.2-1.1    c-0.1-0.4-0.2-0.8-0.3-1.1c-0.1-0.3-0.2-0.7-0.3-1c-0.1-0.4-0.2-0.7-0.3-1.1c-0.1-0.3-0.2-0.7-0.3-1c-0.1-0.4-0.2-0.7-0.4-1.1    c-0.1-0.3-0.2-0.6-0.4-1c-0.1-0.4-0.3-0.7-0.4-1.1c-0.1-0.3-0.3-0.6-0.4-0.9c-0.2-0.4-0.3-0.7-0.5-1.1c-0.1-0.3-0.3-0.6-0.4-0.9    c-0.2-0.4-0.3-0.7-0.5-1.1c-0.1-0.3-0.3-0.6-0.5-0.9c-0.2-0.4-0.4-0.7-0.6-1.1c-0.2-0.3-0.3-0.6-0.5-0.8c-0.2-0.3-0.4-0.7-0.6-1    c-0.2-0.3-0.3-0.5-0.5-0.8c-0.2-0.3-0.5-0.7-0.7-1c-0.2-0.3-0.4-0.5-0.5-0.8c-0.2-0.3-0.5-0.7-0.7-1c-0.2-0.2-0.4-0.5-0.6-0.7    c-0.3-0.3-0.5-0.7-0.8-1c-0.2-0.2-0.4-0.5-0.6-0.7c-0.3-0.3-0.6-0.6-0.8-0.9c-0.2-0.2-0.4-0.4-0.6-0.7c-0.3-0.3-0.6-0.6-0.9-0.9    c-0.2-0.2-0.4-0.4-0.7-0.6c-0.3-0.3-0.6-0.6-0.9-0.9c-0.2-0.2-0.4-0.4-0.7-0.6c-0.3-0.3-0.6-0.6-1-0.8c-0.2-0.2-0.5-0.4-0.7-0.6    c-0.3-0.3-0.7-0.5-1-0.8c-0.2-0.2-0.5-0.4-0.7-0.5c-0.3-0.2-0.7-0.5-1-0.7c-0.2-0.2-0.5-0.3-0.8-0.5c-0.4-0.2-0.7-0.5-1.1-0.7    c-0.3-0.2-0.5-0.3-0.8-0.5c-0.4-0.2-0.7-0.4-1.1-0.6c-0.3-0.2-0.5-0.3-0.8-0.4c-0.4-0.2-0.7-0.4-1.1-0.6c-0.3-0.1-0.6-0.3-0.8-0.4    c-0.4-0.2-0.7-0.4-1.1-0.5c-0.3-0.1-0.6-0.3-0.9-0.4c-0.4-0.2-0.7-0.3-1.1-0.5c-0.3-0.1-0.6-0.2-0.9-0.3c-0.4-0.1-0.7-0.3-1.1-0.4    c-0.3-0.1-0.7-0.2-1-0.3c-0.4-0.1-0.7-0.2-1.1-0.4c-0.3-0.1-0.7-0.2-1-0.3c-0.4-0.1-0.7-0.2-1.1-0.3c-0.4-0.1-0.7-0.2-1.1-0.2    c-0.4-0.1-0.7-0.2-1.1-0.2c-0.4-0.1-0.8-0.1-1.1-0.2c-0.4-0.1-0.7-0.1-1.1-0.2c-0.4-0.1-0.8-0.1-1.2-0.2c-0.3,0-0.7-0.1-1-0.1    c-0.5,0-1-0.1-1.5-0.1c-0.3,0-0.5,0-0.8-0.1c-0.8,0-1.5-0.1-2.3-0.1c-0.7,0-1.4,0-2.1,0c-0.2,0-0.5,0-0.7,0    c-0.5,0-0.9,0.1-1.4,0.1c-0.3,0-0.6,0.1-0.8,0.1c-0.4,0-0.8,0.1-1.3,0.1c-0.3,0-0.6,0.1-0.9,0.1c-0.4,0.1-0.8,0.1-1.2,0.2    c-0.3,0.1-0.6,0.1-0.9,0.2c-0.4,0.1-0.8,0.1-1.1,0.2c-0.3,0.1-0.6,0.2-0.9,0.2c-0.4,0.1-0.7,0.2-1.1,0.3c-0.3,0.1-0.6,0.2-0.9,0.3    c-0.4,0.1-0.7,0.2-1.1,0.3c-0.3,0.1-0.6,0.2-0.9,0.3c-0.4,0.1-0.7,0.2-1.1,0.4c-0.3,0.1-0.6,0.2-0.9,0.4c-0.4,0.1-0.7,0.3-1.1,0.4    c-0.3,0.1-0.6,0.3-0.9,0.4c-0.3,0.2-0.7,0.3-1,0.5c-0.3,0.1-0.6,0.3-0.9,0.4c-0.3,0.2-0.7,0.3-1,0.5c-0.3,0.1-0.6,0.3-0.8,0.5    c-0.3,0.2-0.7,0.4-1,0.6c-0.3,0.2-0.5,0.3-0.8,0.5c-0.3,0.2-0.7,0.4-1,0.6c-0.3,0.2-0.5,0.4-0.8,0.5c-0.3,0.2-0.6,0.4-1,0.7    c-0.3,0.2-0.5,0.4-0.8,0.6c-0.3,0.2-0.6,0.5-1,0.7c-0.2,0.2-0.5,0.4-0.7,0.6c-0.3,0.2-0.5,0.4-0.8,0.6v4.3h2.3    c0.2-0.2,0.5-0.4,0.7-0.6c0.1,0,0.1-0.1,0.2-0.2c0.3-0.2,0.5-0.4,0.8-0.6c0.1-0.1,0.2-0.1,0.3-0.2c0.2-0.2,0.5-0.4,0.7-0.5    c0.1-0.1,0.2-0.2,0.3-0.2c0.3-0.2,0.6-0.5,1-0.7c7.3-5.1,15.9-7.8,24.8-7.8c14.1,0,27.3,6.9,35.4,18.4c0.5,0.7,1,1.5,1.5,2.3    c0.1,0.2,0.3,0.5,0.4,0.7c0.3,0.5,0.6,1.1,0.9,1.6c0.2,0.3,0.3,0.6,0.5,0.9c0.3,0.5,0.5,1,0.7,1.5c0.2,0.3,0.3,0.7,0.4,1    c0.2,0.5,0.4,1,0.6,1.5c0.1,0.4,0.3,0.7,0.4,1.1c0.2,0.5,0.3,1,0.5,1.4c0.1,0.4,0.2,0.8,0.3,1.2c0.1,0.5,0.3,1,0.4,1.4    c0.1,0.4,0.2,0.8,0.3,1.2c0.1,0.5,0.2,1,0.3,1.4c0.1,0.4,0.1,0.8,0.2,1.3c0.1,0.4,0.1,0.7,0.2,1.1h4.7c0-0.2-0.1-0.5-0.1-0.7    C304.3,841.3,304.2,840.9,304.2,840.5z"/>
	</g>
	<g>
		<path class="st6" d="M351,800.9c1.9-0.7,3.8-1.2,5.7-1.7l0.7-0.2c0,0,0,0,0,0c1-0.2,2-0.4,3-0.5c0.1,0,0.1,0,0.2,0    c1-0.1,1.9-0.3,2.9-0.3c0.1,0,0.2,0,0.3,0c0.9-0.1,1.9-0.1,2.8-0.2c0.1,0,0.3,0,0.4,0c0.9,0,1.8,0,2.8,0c0.1,0,0.3,0,0.4,0    c0.9,0,1.8,0.1,2.7,0.2c0.1,0,0.3,0,0.4,0c0.9,0.1,1.8,0.2,2.7,0.4c0.1,0,0.2,0,0.3,0.1c0.8,0.1,1.7,0.3,2.5,0.5    c0.2,0,0.3,0.1,0.5,0.1c0.8,0.2,1.7,0.4,2.5,0.7c0.1,0,0.2,0.1,0.3,0.1l-1-1.5l-2.1-3.2l0,0l-2.4-3.8l-24.1,0.3l-4.6,0.2    c-0.1,0-0.3,0-0.4-0.1l-10,0.1c-0.1,0-0.2,0-0.3-0.1l-5.8-2.6H294c-4.9,0-13.4-0.9-18.2-2c-0.2,0-0.3-0.1-0.4-0.2l-2.7-3    c-0.1-0.1-0.2-0.3-0.2-0.5v-10l-23.4-10.4l-8.4-3.7c0,0,0,0,0,0l-6.4-2.8c-0.2-0.1-0.3-0.2-0.4-0.4l-7.5-15.1c0,0,0,0,0,0    l-11-22.2c0,0,0,0,0,0l-15-30.2h-22.1v126.4h40.9c1.6-1.9,3.4-3.6,5.2-5.2c9-7.7,20.4-12,32.3-12c25.4,0,47.1,19.8,49.3,45.2    c0.1,1.6,0.2,3,0.2,4.3c0,4.7-0.7,9.4-2,13.9l16.4,0.7c-1.5-4.8-2.2-9.7-2.2-14.7c0-1.5,0.1-2.9,0.2-4.4    C320.3,823.7,333,807.4,351,800.9z"/>
	</g>
	<g>
		<path class="st2" d="M256.8,859.3c2.4,0,4.8-0.7,6.8-2.1c4.5-3.2,6.3-9.2,4.1-14.3c-0.3-0.8-0.7-1.5-1.2-2.2    c-2.5-3.6-7.1-5.6-11.5-4.9c-0.4,0.1-0.7,0.4-0.7,0.8v20.7h-0.8c-0.4,0-0.7,0.3-0.8,0.7c-0.1,0.4,0.2,0.7,0.5,0.9    C254.4,859.1,255.6,859.3,256.8,859.3z M255.9,837.2c3.7-0.3,7.2,1.4,9.3,4.3c0.4,0.6,0.8,1.2,1.1,1.9c1.9,4.4,0.4,9.6-3.6,12.4    c-2,1.4-4.4,2-6.8,1.8V837.2z"/>
	</g>
	<g>
		<path class="st2" d="M393.5,836.3c-4.4-10-14.3-16.4-25.2-16.4c-3.8,0-7.6,0.8-11.1,2.4c-4.8,2.1-8.8,5.5-11.7,9.9    c-2.2,3.3-3.7,7-4.3,10.9c-0.9,5.3-0.2,10.7,2,15.6c3.5,7.9,10.3,13.6,18.7,15.6c2.1,0.5,4.3,0.8,6.5,0.8c3.8,0,7.5-0.8,11.1-2.3    c11.4-5.1,18-17.2,16-29.6C395.1,840.6,394.5,838.4,393.5,836.3z M378.9,871.2c-5.2,2.3-11,2.8-16.6,1.5    c-7.9-1.9-14.4-7.3-17.7-14.7c-2-4.6-2.7-9.7-1.9-14.7c0.6-3.6,2-7.2,4.1-10.3c2.7-4.1,6.6-7.3,11.1-9.3c3.3-1.5,6.9-2.2,10.5-2.2    c10.3,0,19.6,6.1,23.8,15.5c0.9,2,1.5,4.1,1.9,6.4C395.9,855,389.7,866.4,378.9,871.2z"/>
	</g>
	<g>
		<path class="st2" d="M426.3,829.1c0-0.1,0-0.3-0.1-0.4l-44.7-70l-9-65.6l-3.1-22.5c-0.8-6-6.4-10.9-12.4-10.9H251.3    c-6.1,0-11.1,5-11.1,11.1v38.8l-37.8-20.6l-0.7-1.5c-0.1-0.3-0.4-0.4-0.7-0.4h-23.4c-0.4,0-0.8,0.3-0.8,0.8v128    c0,0.4,0.3,0.8,0.8,0.8h42c0.2,0,0.4-0.1,0.6-0.3c1.2-1.5,2.6-2.9,4-4.2v3.7c0,0.4,0.3,0.8,0.8,0.8h3.4h26v4.1    c0,0.2,0.1,0.4,0.2,0.6c0.2,0.1,0.4,0.2,0.6,0.2c9-0.5,17.7,3.6,22.9,11c2.3,3.2,3.7,6.8,4.4,10.8c1.6,9.9-2.5,19.7-10.7,25.4    c-4.7,3.3-10.3,4.9-16,4.7c-8.2-0.3-15.5-4.4-20.2-11c-1-1.4-1.9-3-2.6-4.7c-0.1-0.3-0.4-0.5-0.7-0.5h-16.5    c-0.2,0-0.5,0.1-0.6,0.3c-0.1,0.2-0.2,0.4-0.1,0.7c1.3,5.1,3.5,9.8,6.5,14.1c8.1,11.5,21.3,18.4,35.4,18.4c2.9,0,5.7-0.3,8.5-0.8    c5.9-1.2,11.4-3.5,16.3-7c12.5-8.8,19.5-23.6,18.2-38.9h4.7c0.1,1.2,0.1,2.4,0.1,3.5c0,4.9-0.7,9.8-2.2,14.4    c-0.1,0.2,0,0.5,0.1,0.7c0.1,0.2,0.4,0.3,0.6,0.3l18.5,0.8c0,0,0,0,0,0c0,0,0,0,0,0c0.4,0,0.8-0.3,0.8-0.8c0-0.2-0.1-0.3-0.1-0.4    c-1.6-4.9-2.4-9.9-2.4-15.1c0-1.2,0.1-2.3,0.1-3.5h5.2c-0.6,7.2,0.6,14.4,3.5,21c6.9,15.6,22.4,25.7,39.6,25.8c0,0,0.1,0,0.1,0    c6,0,11.8-1.3,17.3-3.7c16.9-7.5,27.1-24.7,25.6-43h5c0.2,0,0.4-0.1,0.6-0.3c0.1-0.2,0.2-0.4,0.2-0.6c-0.3-3.9-1.1-7.7-2.4-11.4    l6.6,3.7l4,2.2c0.1,0.1,0.3,0.1,0.4,0.1c0.1,0,0.3,0,0.4-0.1c0.2-0.1,0.4-0.4,0.4-0.7L426.3,829.1z M379.8,758.6l0.1,0.6    c0.5,3.5,0.9,8.3,1.1,12.9c0.1,2.6,0.2,5,0.2,6.8v9.5c0,0.4,0,0.8-0.1,1.2c0,0.1,0,0.2,0,0.2c-0.1,0.4-0.1,0.8-0.2,1.1    c0,0.1,0,0.1-0.1,0.2c-0.1,0.4-0.2,0.7-0.4,1.1c0,0,0,0,0,0c-0.2,0.4-0.4,0.7-0.6,1c0,0,0,0.1-0.1,0.1l-2-3.2    c-0.1-0.2-0.4-0.4-0.7-0.4c0,0,0,0,0,0l-3.1,0v-13.2c0-1-0.2-2.1-0.5-3.1c-0.3-1-0.7-1.9-1.2-2.7c-0.3-4.2-0.6-8.4-1-11.3l-9-65.8    h8.8L379.8,758.6z M348.2,778l-78-35.6l0-8.2l77.4,42.1c0.1,0.1,0.2,0.1,0.4,0.1c0.1,0,0.2,0,0.4-0.1c0.2-0.1,0.4-0.3,0.4-0.6    c0.1-0.5,0.2-1,0.3-1.5c0.4-1.2,1-2.4,1.8-3.3c0.2-0.2,0.2-0.4,0.2-0.7c0-0.2-0.2-0.4-0.4-0.5L270.3,726l0-54.4l86.6,0    c0.2,0,0.7,0.5,0.7,0.6l2.9,21.1l9.1,66.7c0.4,2.9,0.8,7.1,1,11.4c0,0.1,0.1,0.3,0.1,0.4c0.5,0.8,0.9,1.6,1.1,2.5    c0.3,0.9,0.4,1.8,0.4,2.6v13.1h-10.6c-0.2,0-0.4,0.1-0.5,0.2l-8.7,0.1l-3.8,0.1v-11.6C348.7,778.4,348.5,778.2,348.2,778z     M273.6,772.3l-3.4-1.5l0-9.5l57.7,26.4H294c-4.7,0-12.9-0.9-17.7-1.9l-2.3-2.6V773C274.1,772.7,273.9,772.4,273.6,772.3z     M269.8,759.4C269.8,759.4,269.8,759.4,269.8,759.4l-28.4-13h0l-13.6-6.2l-9.8-19.8l-0.1-0.2l129.3,59v11l-9.4,0.1l-5.8-2.6    c0,0,0,0,0,0L269.8,759.4z M268.7,760.6l0,9.5l-2.8-1.3l-24-10.6v-9.9L268.7,760.6z M240.2,747.6v9.9l-5-2.2l-6.4-12.9    L240.2,747.6z M216.7,718l-8.7-17.6l16.2,8.8v12.2L216.7,718z M225.8,722.1v-12.1l14.5,7.9v10.8l-6.7-3.1L225.8,722.1z     M241.8,729.4v-10.7l9.9,5.4l16.9,9.2l0,8.3L241.8,729.4z M241.8,670.8c0-5.2,4.3-9.5,9.5-9.5h105.6c5.3,0,10.2,4.3,10.9,9.5    l3,21.6H362l-0.1-0.5l-2.7-19.9c-0.1-0.9-1.3-2-2.3-2h-87.4c-0.4,0-0.8,0.3-0.8,0.8l0,54.3l-26.9-14.6V670.8z M349.1,770.6    c-0.7,0.9-1.2,2-1.5,3.1c-0.1,0.2-0.1,0.5-0.2,0.7L206.8,698l-3.2-6.5L349.1,770.6z M280.7,881.6c-4.7,3.3-10,5.6-15.7,6.7    c-2.7,0.5-5.5,0.8-8.2,0.8c-13.6,0-26.4-6.6-34.1-17.7c-2.7-3.8-4.7-8-6-12.6h15c0.7,1.6,1.6,3.1,2.5,4.5    c5,7.1,12.8,11.3,21.4,11.7c6.1,0.2,12-1.5,17-5c8.7-6.1,13-16.4,11.3-27c-0.7-4.2-2.2-8-4.6-11.4c-5.3-7.5-14.1-12-23.4-11.7v-4    c0-0.4-0.3-0.8-0.8-0.8h-24.6c0.1,0,0.1-0.1,0.2-0.1c0.3-0.2,0.6-0.5,0.8-0.7c0.1-0.1,0.2-0.1,0.2-0.2c0.4-0.3,0.7-0.6,1.1-0.8    c7.1-4.9,15.3-7.6,23.9-7.6c13.6,0,26.4,6.6,34.2,17.7c4.1,5.8,6.6,12.7,7.3,19.7C299.7,858.2,293,872.9,280.7,881.6z     M299.7,842.4c0-0.4-0.1-0.7-0.2-1.1c-0.1-0.4-0.1-0.8-0.2-1.3c-0.1-0.5-0.2-1-0.3-1.4c-0.1-0.4-0.2-0.8-0.3-1.2    c-0.1-0.5-0.3-1-0.4-1.4c-0.1-0.4-0.2-0.8-0.3-1.2c-0.1-0.5-0.3-1-0.5-1.4c-0.1-0.4-0.2-0.7-0.4-1.1c-0.2-0.5-0.4-1-0.6-1.5    c-0.1-0.3-0.3-0.7-0.4-1c-0.2-0.5-0.5-1-0.7-1.5c-0.2-0.3-0.3-0.6-0.5-0.9c-0.3-0.6-0.6-1.1-0.9-1.6c-0.1-0.2-0.3-0.5-0.4-0.7    c-0.5-0.8-1-1.5-1.5-2.3c-8.1-11.5-21.3-18.4-35.4-18.4c-8.9,0-17.5,2.7-24.8,7.8c-0.3,0.2-0.6,0.5-1,0.7    c-0.1,0.1-0.2,0.2-0.3,0.2c-0.2,0.2-0.5,0.4-0.7,0.5c-0.1,0.1-0.2,0.1-0.3,0.2c-0.3,0.2-0.5,0.4-0.8,0.6c-0.1,0-0.1,0.1-0.2,0.2    c-0.2,0.2-0.5,0.4-0.7,0.6h-2.3v-4.3c0.3-0.2,0.5-0.4,0.8-0.6c0.2-0.2,0.5-0.4,0.7-0.6c0.3-0.2,0.6-0.5,1-0.7    c0.3-0.2,0.5-0.4,0.8-0.6c0.3-0.2,0.6-0.4,1-0.7c0.3-0.2,0.5-0.4,0.8-0.5c0.3-0.2,0.7-0.4,1-0.6c0.3-0.2,0.5-0.3,0.8-0.5    c0.3-0.2,0.7-0.4,1-0.6c0.3-0.2,0.6-0.3,0.8-0.5c0.3-0.2,0.7-0.3,1-0.5c0.3-0.1,0.6-0.3,0.9-0.4c0.3-0.2,0.7-0.3,1-0.5    c0.3-0.1,0.6-0.3,0.9-0.4c0.3-0.1,0.7-0.3,1.1-0.4c0.3-0.1,0.6-0.2,0.9-0.4c0.4-0.1,0.7-0.2,1.1-0.4c0.3-0.1,0.6-0.2,0.9-0.3    c0.4-0.1,0.7-0.2,1.1-0.3c0.3-0.1,0.6-0.2,0.9-0.3c0.4-0.1,0.7-0.2,1.1-0.3c0.3-0.1,0.6-0.2,0.9-0.2c0.4-0.1,0.8-0.2,1.1-0.2    c0.3-0.1,0.6-0.1,0.9-0.2c0.4-0.1,0.8-0.1,1.2-0.2c0.3,0,0.6-0.1,0.9-0.1c0.4-0.1,0.8-0.1,1.3-0.1c0.3,0,0.6-0.1,0.8-0.1    c0.5,0,0.9-0.1,1.4-0.1c0.2,0,0.5,0,0.7,0c0.7,0,1.4,0,2.1,0c0.8,0,1.5,0,2.3,0.1c0.3,0,0.5,0,0.8,0.1c0.5,0,1,0.1,1.5,0.1    c0.3,0,0.7,0.1,1,0.1c0.4,0,0.8,0.1,1.2,0.2c0.4,0.1,0.7,0.1,1.1,0.2c0.4,0.1,0.8,0.1,1.1,0.2c0.4,0.1,0.7,0.2,1.1,0.2    c0.4,0.1,0.7,0.2,1.1,0.2c0.4,0.1,0.7,0.2,1.1,0.3c0.3,0.1,0.7,0.2,1,0.3c0.4,0.1,0.7,0.2,1.1,0.4c0.3,0.1,0.7,0.2,1,0.3    c0.4,0.1,0.8,0.3,1.1,0.4c0.3,0.1,0.6,0.2,0.9,0.3c0.4,0.2,0.7,0.3,1.1,0.5c0.3,0.1,0.6,0.2,0.9,0.4c0.4,0.2,0.7,0.4,1.1,0.5    c0.3,0.1,0.6,0.3,0.8,0.4c0.4,0.2,0.7,0.4,1.1,0.6c0.3,0.1,0.5,0.3,0.8,0.4c0.4,0.2,0.7,0.4,1.1,0.6c0.3,0.2,0.5,0.3,0.8,0.5    c0.4,0.2,0.7,0.5,1.1,0.7c0.3,0.2,0.5,0.3,0.8,0.5c0.3,0.2,0.7,0.5,1,0.7c0.2,0.2,0.5,0.3,0.7,0.5c0.3,0.3,0.7,0.5,1,0.8    c0.2,0.2,0.5,0.4,0.7,0.6c0.3,0.3,0.6,0.6,1,0.8c0.2,0.2,0.5,0.4,0.7,0.6c0.3,0.3,0.6,0.6,0.9,0.9c0.2,0.2,0.4,0.4,0.7,0.6    c0.3,0.3,0.6,0.6,0.9,0.9c0.2,0.2,0.4,0.4,0.6,0.7c0.3,0.3,0.6,0.6,0.8,0.9c0.2,0.2,0.4,0.5,0.6,0.7c0.3,0.3,0.5,0.6,0.8,1    c0.2,0.2,0.4,0.5,0.6,0.7c0.3,0.3,0.5,0.7,0.7,1c0.2,0.3,0.4,0.5,0.5,0.8c0.2,0.3,0.5,0.7,0.7,1c0.2,0.3,0.4,0.5,0.5,0.8    c0.2,0.3,0.4,0.7,0.6,1c0.2,0.3,0.3,0.5,0.5,0.8c0.2,0.4,0.4,0.7,0.6,1.1c0.2,0.3,0.3,0.6,0.5,0.9c0.2,0.4,0.4,0.7,0.5,1.1    c0.1,0.3,0.3,0.6,0.4,0.9c0.2,0.4,0.3,0.7,0.5,1.1c0.1,0.3,0.3,0.6,0.4,0.9c0.1,0.4,0.3,0.7,0.4,1.1c0.1,0.3,0.2,0.6,0.4,1    c0.1,0.4,0.2,0.7,0.4,1.1c0.1,0.3,0.2,0.7,0.3,1c0.1,0.4,0.2,0.7,0.3,1.1c0.1,0.3,0.2,0.7,0.3,1c0.1,0.4,0.2,0.8,0.3,1.1    c0.1,0.4,0.2,0.7,0.2,1.1c0.1,0.4,0.1,0.8,0.2,1.1c0.1,0.4,0.1,0.7,0.2,1.1c0.1,0.4,0.1,0.8,0.1,1.1c0,0.2,0.1,0.5,0.1,0.7H299.7z     M318.6,843.1c-0.1,1.4-0.2,2.9-0.2,4.4c0,5,0.7,9.9,2.2,14.7l-16.4-0.7c1.3-4.5,2-9.2,2-13.9c0-1.4-0.1-2.8-0.2-4.3    c-2.2-25.3-23.9-45.2-49.3-45.2c-11.8,0-23.3,4.3-32.3,12c-1.9,1.6-3.6,3.4-5.2,5.2h-40.9V688.7h22.1l15,30.2c0,0,0,0,0,0l11,22.2    c0,0,0,0,0,0l7.5,15.1c0.1,0.2,0.2,0.3,0.4,0.4l6.4,2.8c0,0,0,0,0,0l8.4,3.7l23.4,10.4v10c0,0.2,0.1,0.4,0.2,0.5l2.7,3    c0.1,0.1,0.3,0.2,0.4,0.2c4.8,1.1,13.3,2,18.2,2h37.4l5.8,2.6c0.1,0,0.2,0.1,0.3,0.1l10-0.1c0.1,0.1,0.3,0.1,0.4,0.1l4.6-0.2    l24.1-0.3l2.4,3.8l0,0l2.1,3.2l1,1.5c-0.1,0-0.2-0.1-0.3-0.1c-0.8-0.2-1.7-0.5-2.5-0.7c-0.2,0-0.3-0.1-0.5-0.1    c-0.8-0.2-1.7-0.4-2.5-0.5c-0.1,0-0.2,0-0.3-0.1c-0.9-0.1-1.8-0.3-2.7-0.4c-0.1,0-0.3,0-0.4,0c-0.9-0.1-1.8-0.2-2.7-0.2    c-0.1,0-0.3,0-0.4,0c-0.9,0-1.8,0-2.8,0c-0.1,0-0.3,0-0.4,0c-0.9,0-1.9,0.1-2.8,0.2c-0.1,0-0.2,0-0.3,0c-1,0.1-1.9,0.2-2.9,0.3    c-0.1,0-0.1,0-0.2,0c-1,0.2-2,0.3-3,0.5c0,0,0,0,0,0l-0.7,0.2c-2,0.5-3.9,1-5.7,1.7C333,807.4,320.3,823.7,318.6,843.1z     M385.2,885.6c-5.3,2.3-10.9,3.5-16.7,3.6l-0.1,0.8v-0.8c-16.5,0-31.5-9.7-38.1-24.8c-2.9-6.6-4.1-13.9-3.3-21.1    c1.1-10.2,5.8-19.7,13.3-26.5c0.4-0.4,0.8-0.8,1.3-1.1c3-2.5,6.4-4.6,10-6.2c5.4-2.4,11-3.6,16.8-3.6c16.5,0,31.5,9.7,38.1,24.8    c1.8,4,2.9,8.3,3.4,12.7C411.6,861.2,401.8,878.2,385.2,885.6z M415.6,842.4h-4.3c0-0.2,0-0.3-0.1-0.5c0-0.3-0.1-0.5-0.1-0.8    c0-0.3-0.1-0.6-0.1-0.9c0-0.2-0.1-0.5-0.1-0.7c-0.1-0.3-0.1-0.6-0.2-0.9c0-0.2-0.1-0.5-0.2-0.7c-0.1-0.3-0.1-0.6-0.2-0.9    c-0.1-0.2-0.1-0.5-0.2-0.7c-0.1-0.3-0.2-0.6-0.3-0.9c-0.1-0.2-0.1-0.4-0.2-0.6c-0.1-0.3-0.2-0.7-0.3-1c-0.1-0.2-0.1-0.4-0.2-0.6    c-0.1-0.4-0.3-0.7-0.4-1c-0.1-0.2-0.1-0.3-0.2-0.5c-0.2-0.5-0.4-1-0.6-1.5c-6.9-15.6-22.5-25.8-39.6-25.8c-6,0-11.9,1.2-17.5,3.7    c-3.8,1.7-7.2,3.8-10.4,6.5c-0.4,0.4-0.9,0.8-1.3,1.2c-0.5,0.4-1,0.9-1.4,1.4c-0.1,0.1-0.2,0.2-0.4,0.4c-0.3,0.3-0.7,0.7-1,1    c-0.1,0.2-0.3,0.3-0.4,0.5c-0.3,0.3-0.6,0.6-0.9,1c-0.2,0.2-0.3,0.4-0.4,0.6c-0.3,0.3-0.5,0.6-0.8,1c-0.2,0.2-0.3,0.4-0.5,0.6    c-0.2,0.3-0.5,0.6-0.7,1c-0.2,0.2-0.3,0.5-0.4,0.7c-0.2,0.3-0.4,0.6-0.6,0.9c-0.1,0.2-0.3,0.5-0.4,0.7c-0.2,0.3-0.4,0.6-0.6,0.9    c-0.1,0.2-0.3,0.5-0.4,0.8c-0.2,0.3-0.3,0.6-0.5,0.9c-0.1,0.3-0.3,0.5-0.4,0.8c-0.2,0.3-0.3,0.6-0.5,1c-0.1,0.3-0.2,0.5-0.4,0.8    c-0.1,0.3-0.3,0.6-0.4,1c-0.1,0.3-0.2,0.6-0.3,0.8c-0.1,0.3-0.2,0.6-0.4,1c-0.1,0.3-0.2,0.6-0.3,0.9c-0.1,0.3-0.2,0.7-0.3,1    c-0.1,0.3-0.2,0.6-0.2,0.9c-0.1,0.3-0.2,0.7-0.3,1c-0.1,0.3-0.1,0.6-0.2,0.9c-0.1,0.3-0.2,0.7-0.2,1c-0.1,0.3-0.1,0.6-0.2,0.9    c-0.1,0.3-0.1,0.7-0.2,1c0,0.3-0.1,0.6-0.1,0.9c0,0.2-0.1,0.4-0.1,0.7h-5.2c0-0.2,0-0.4,0.1-0.5c0-0.3,0.1-0.6,0.1-1    c0-0.3,0.1-0.6,0.1-0.9c0-0.3,0.1-0.6,0.2-1c0.1-0.3,0.1-0.6,0.2-0.9c0.1-0.3,0.1-0.6,0.2-0.9c0.1-0.3,0.1-0.6,0.2-0.9    c0.1-0.3,0.1-0.6,0.2-0.9c0.1-0.3,0.2-0.6,0.2-0.9c0.1-0.3,0.2-0.6,0.3-0.9c0.1-0.3,0.2-0.6,0.3-0.9c0.1-0.3,0.2-0.6,0.3-0.9    c0.1-0.3,0.2-0.6,0.3-0.9c0.1-0.3,0.2-0.6,0.3-0.9c0.1-0.3,0.2-0.6,0.3-0.8c0.1-0.3,0.2-0.6,0.4-0.9c0.1-0.3,0.2-0.5,0.4-0.8    c0.1-0.3,0.3-0.6,0.4-0.9c0.1-0.3,0.3-0.5,0.4-0.8c0.1-0.3,0.3-0.6,0.4-0.8c0.1-0.3,0.3-0.5,0.4-0.8c0.2-0.3,0.3-0.6,0.5-0.8    c0.1-0.3,0.3-0.5,0.5-0.8c0.2-0.3,0.3-0.5,0.5-0.8c0.2-0.2,0.3-0.5,0.5-0.7c0.2-0.3,0.3-0.5,0.5-0.8c0.2-0.2,0.3-0.5,0.5-0.7    c0.2-0.3,0.4-0.5,0.6-0.8c0.2-0.2,0.4-0.5,0.5-0.7c0.2-0.3,0.4-0.5,0.6-0.8c0.2-0.2,0.4-0.4,0.6-0.7c0.2-0.2,0.4-0.5,0.6-0.7    c0.2-0.2,0.4-0.4,0.6-0.6c0.2-0.2,0.4-0.5,0.6-0.7c0.2-0.2,0.4-0.4,0.6-0.6c0.2-0.2,0.4-0.5,0.7-0.7c0.2-0.2,0.4-0.4,0.6-0.6    c0.2-0.2,0.5-0.4,0.7-0.7c0.2-0.2,0.4-0.4,0.6-0.6c0.2-0.2,0.5-0.4,0.7-0.6c0.2-0.2,0.4-0.4,0.7-0.5c0.3-0.2,0.5-0.4,0.8-0.6    c0.2-0.2,0.5-0.3,0.7-0.5c0.3-0.2,0.5-0.4,0.8-0.6c0.2-0.2,0.5-0.3,0.7-0.5c0.3-0.2,0.6-0.4,0.8-0.6c0.2-0.2,0.5-0.3,0.7-0.4    c0.3-0.2,0.6-0.4,0.9-0.5c0.2-0.1,0.5-0.3,0.7-0.4c0.3-0.2,0.6-0.3,0.9-0.5c0.2-0.1,0.5-0.3,0.7-0.4c0.3-0.2,0.6-0.3,0.9-0.5    c0.2-0.1,0.5-0.2,0.7-0.4c0.3-0.2,0.6-0.3,1-0.5c0.2-0.1,0.5-0.2,0.7-0.3c0.3-0.1,0.7-0.3,1-0.4c0.3-0.1,0.5-0.2,0.8-0.3    c0.3-0.1,0.7-0.3,1-0.4c0.3-0.1,0.6-0.2,0.8-0.3c0.3-0.1,0.6-0.2,1-0.3c0.3-0.1,0.6-0.2,0.9-0.3c0.3-0.1,0.6-0.2,0.9-0.3    c0.6-0.2,1.2-0.3,1.9-0.5l0.7-0.2c8.7-1.9,17.7-1.3,26,1.6c13.3,4.7,23.9,14.9,28.9,28.1C414.2,834.2,415.1,838.2,415.6,842.4z     M414,829.5c-0.2-0.4-0.4-0.9-0.6-1.3c-0.1-0.3-0.3-0.7-0.4-1c-0.2-0.5-0.5-1-0.7-1.4c-0.2-0.3-0.3-0.7-0.5-1    c-0.2-0.5-0.5-0.9-0.8-1.4c-0.2-0.3-0.3-0.6-0.5-0.9c-0.3-0.5-0.6-0.9-0.9-1.4c-0.2-0.3-0.4-0.6-0.6-0.9c-0.3-0.5-0.6-0.9-1-1.4    c-0.2-0.3-0.4-0.5-0.6-0.8c-0.4-0.5-0.7-1-1.1-1.4c-0.2-0.2-0.3-0.4-0.5-0.7c-0.5-0.5-0.9-1.1-1.4-1.6c-0.1-0.1-0.2-0.3-0.4-0.4    c-1.2-1.3-2.5-2.5-3.8-3.7c0,0-0.1-0.1-0.1-0.1c-0.6-0.5-1.3-1.1-1.9-1.6c-0.2-0.1-0.3-0.2-0.5-0.4c-0.5-0.4-1.1-0.8-1.6-1.2    c-0.2-0.2-0.4-0.3-0.7-0.4c-0.5-0.3-1-0.7-1.6-1c-0.3-0.2-0.5-0.3-0.8-0.5c-0.5-0.3-1-0.6-1.5-0.9c-0.3-0.2-0.6-0.3-0.9-0.5    c-0.5-0.3-1-0.5-1.5-0.8c-0.3-0.2-0.7-0.3-1-0.4c-0.5-0.2-1-0.4-1.5-0.7c-0.4-0.1-0.7-0.3-1.1-0.4c-0.4-0.2-0.9-0.4-1.3-0.5    l-0.3-0.4l-3.6-5.5c1.4-1.9,2.1-4.1,2.1-6.5v-9.5c0-0.4,0-0.9,0-1.4c0-0.1,0-0.2,0-0.3c0-0.5,0-1,0-1.5c0-0.1,0-0.1,0-0.2    c0-0.2,0-0.5,0-0.7l29.8,46.7l7,10.9L414,829.5z M422.4,834.2l-39.9-62.4c0-0.1,0-0.1,0-0.2c0-0.7-0.1-1.3-0.1-2    c0-0.2,0-0.4,0-0.6c0-0.6-0.1-1.2-0.1-1.9c0-0.1,0-0.2,0-0.4c-0.1-0.7-0.1-1.4-0.2-2c0-0.3,0-0.5-0.1-0.7c0-0.4-0.1-0.9-0.1-1.3    c0-0.2,0-0.3,0-0.5l42.9,67.1l0.3,6.2L422.4,834.2z"/>
	</g>
	<g>
		<path class="st2" d="M262.1,676.1h-12.3c-1.7,0-3.1,1.4-3.1,3.1v1.4c0,1.7,1.4,3.1,3.1,3.1h12.3c1.7,0,3.1-1.4,3.1-3.1v-1.4    C265.2,677.5,263.8,676.1,262.1,676.1z M263.6,680.6c0,0.8-0.7,1.5-1.5,1.5h-12.3c-0.8,0-1.5-0.7-1.5-1.5v-1.4    c0-0.8,0.7-1.5,1.5-1.5h12.3c0.8,0,1.5,0.7,1.5,1.5V680.6z"/>
	</g>
	<g>
		<path class="st2" d="M262.1,702.4h-12.3c-1.7,0-3.1,1.4-3.1,3.1v1.4c0,1.7,1.4,3.1,3.1,3.1h12.3c1.7,0,3.1-1.4,3.1-3.1v-1.4    C265.2,703.8,263.8,702.4,262.1,702.4z M263.6,706.9c0,0.8-0.7,1.5-1.5,1.5h-12.3c-0.8,0-1.5-0.7-1.5-1.5v-1.4    c0-0.8,0.7-1.5,1.5-1.5h12.3c0.8,0,1.5,0.7,1.5,1.5V706.9z"/>
	</g>
	<g>
		<path class="st2" d="M262.1,689.3h-12.3c-1.7,0-3.1,1.4-3.1,3.1v1.4c0,1.7,1.4,3.1,3.1,3.1h12.3c1.7,0,3.1-1.4,3.1-3.1v-1.4    C265.2,690.6,263.8,689.3,262.1,689.3z M263.6,693.8c0,0.8-0.7,1.5-1.5,1.5h-12.3c-0.8,0-1.5-0.7-1.5-1.5v-1.4    c0-0.8,0.7-1.5,1.5-1.5h12.3c0.8,0,1.5,0.7,1.5,1.5V693.8z"/>
	</g>
	<g>
		<polygon class="st6" points="362.2,694.3 371.1,694.5 370.7,692 361.9,692   "/>
	</g>
	<g>
		<polygon class="st3" points="225.8,710.1 225.8,722.1 240.2,728.7 240.2,717.9   "/>
	</g>
	<g>
		<g>
			<path class="st1" d="M378.5,843l-0.7,0.3c-1.6-3.7-5.3-6.1-9.4-6.1c-1.4,0-2.8,0.3-4.2,0.9c-2.4,1.1-4.3,3-5.3,5.4     c-1.1,2.6-1.1,5.5,0.1,8.1c1.6,3.7,5.3,6.1,9.4,6.1c1.4,0,2.8-0.3,4.2-0.9c5.1-2.2,7.5-8.3,5.3-13.4L378.5,843z"/>
		</g>
		<g>
			<path class="st2" d="M379.3,842.8c0,0-0.1-0.1-0.1-0.2c-1.9-4.3-6.2-7.1-10.9-7.1c-1.7,0-3.3,0.3-4.8,1c-2.8,1.2-4.9,3.5-6.1,6.3     c-1.3,3-1.3,6.4,0.1,9.4c1.9,4.3,6.2,7.1,10.9,7.1c1.7,0,3.3-0.3,4.8-1C379,855.7,381.8,848.8,379.3,842.8z M372.5,856.9     c-1.3,0.6-2.7,0.9-4.2,0.9c-4.1,0-7.8-2.4-9.4-6.1c-1.2-2.6-1.2-5.5-0.1-8.1c1-2.4,2.9-4.4,5.3-5.4c1.3-0.6,2.7-0.9,4.2-0.9     c4.1,0,7.8,2.4,9.4,6.1l0.7-0.3l-0.6,0.5C380,848.6,377.6,854.6,372.5,856.9z"/>
		</g>
	</g>
	<g>
		<path class="st6" d="M340.9,774.7c0,0,3.6-0.1,3.7,0c0.1,0,2.5,1.4,2.5,1.4l0,1.5L340.9,774.7z"/>
	</g>
	<g>
		<polygon class="st4" points="341.3,772.9 341.3,773.2 341.8,773.2   "/>
	</g>
	<g>
		<path d="M1055.3,915.8c-0.3-1.9,0.9-3.7,2.8-4.1l0,0c1.9-0.3,3.7,0.9,4,2.8l0,0c0.3,1.9-0.9,3.7-2.8,4.1l0,0    c-0.2,0-0.4,0.1-0.6,0.1l0,0C1057.1,918.7,1055.6,917.5,1055.3,915.8z M1035.3,914.4L1035.3,914.4L1035.3,914.4    c-1.7-1-2.2-3.1-1.3-4.8l0,0c1-1.7,3.1-2.3,4.8-1.3l0,0c1.7,1,2.2,3.1,1.3,4.8l0,0c-0.7,1.1-1.8,1.8-3,1.8l0,0    C1036.5,914.8,1035.9,914.7,1035.3,914.4z M1075.6,906.8c-1.5-1.2-1.7-3.5-0.4-4.9l0,0c1.2-1.5,3.4-1.7,4.9-0.4l0,0    c1.5,1.2,1.7,3.4,0.4,4.9l0,0c-0.7,0.8-1.7,1.2-2.7,1.2l0,0C1077.1,907.6,1076.3,907.3,1075.6,906.8z M1019.6,895.7    C1019.6,895.7,1019.6,895.7,1019.6,895.7L1019.6,895.7c-0.7-1.8,0.3-3.8,2.1-4.5l0,0c1.8-0.7,3.8,0.3,4.5,2.1l0,0    c0.7,1.8-0.3,3.8-2.1,4.5l0,0c-0.4,0.1-0.8,0.2-1.2,0.2l0,0C1021.4,898,1020.1,897.1,1019.6,895.7z M1081.9,883.4L1081.9,883.4    L1081.9,883.4c0,0,0-0.1,0-0.1l0,0c0-1.9,1.6-3.5,3.5-3.5l0,0c1.9,0,3.5,1.5,3.5,3.5l0,0l0,0l0,0c0,0,0,0,0,0.1l0,0c0,0,0,0,0,0.1    l0,0c0,1.9-1.6,3.5-3.5,3.5l0,0C1083.5,886.9,1081.9,885.3,1081.9,883.4z M1081.9,883.3L1081.9,883.3L1081.9,883.3    C1081.9,883.3,1081.9,883.3,1081.9,883.3L1081.9,883.3C1081.9,883.3,1081.9,883.3,1081.9,883.3z M1021.6,875.7    c-1.8-0.7-2.8-2.7-2.1-4.5l0,0l0,0l0,0c0.7-1.8,2.7-2.8,4.5-2.1l0,0c1.8,0.7,2.8,2.7,2.1,4.5l0,0c-0.5,1.4-1.9,2.3-3.3,2.3l0,0    C1022.4,875.9,1022,875.8,1021.6,875.7z M1075.1,864.8c-1.2-1.5-1.1-3.7,0.4-4.9l0,0c1.5-1.2,3.7-1.1,4.9,0.4l0,0l0,0l0,0    c1.2,1.5,1.1,3.7-0.4,4.9l0,0c-0.7,0.6-1.5,0.8-2.3,0.8l0,0C1076.8,866.1,1075.8,865.6,1075.1,864.8z M1033.9,857.2    c-1-1.7-0.4-3.8,1.3-4.8l0,0c1.7-1,3.8-0.4,4.8,1.3l0,0c1,1.7,0.4,3.8-1.3,4.8v0c-0.5,0.3-1.2,0.5-1.8,0.5l0,0    C1035.8,859,1034.6,858.4,1033.9,857.2z M1058.1,855c-1.9-0.3-3.2-2.1-2.9-4l0,0c0.3-1.9,2.1-3.2,4-2.9l0,0l0,0l0,0    c1.9,0.3,3.2,2.1,2.9,4l0,0c-0.3,1.7-1.8,2.9-3.4,2.9l0,0C1058.5,855.1,1058.3,855.1,1058.1,855z"/>
	</g>
	<g>
		<path d="M1271.4,316.9c-0.6-1.8,0.4-3.8,2.2-4.4l0,0c1.8-0.6,3.8,0.4,4.4,2.2l0,0c0.6,1.8-0.4,3.8-2.2,4.4l0,0l0,0l0,0    c-0.4,0.1-0.7,0.2-1.1,0.2l0,0C1273.2,319.3,1271.9,318.4,1271.4,316.9z M1252.1,311.5c-1.1-1.6-0.8-3.8,0.8-4.9l0,0    c1.6-1.1,3.8-0.8,4.9,0.8l0,0c1.1,1.6,0.8,3.8-0.8,4.9l0,0c-0.6,0.5-1.3,0.7-2.1,0.7l0,0C1253.9,312.9,1252.8,312.4,1252.1,311.5z     M1283.4,299L1283.4,299C1283.4,299,1283.4,299,1283.4,299L1283.4,299c0-2,1.6-3.6,3.5-3.6l0,0c1.9,0,3.5,1.6,3.5,3.5l0,0    c0,0,0,0,0,0l0,0c0,0,0,0,0,0l0,0c0,1.9-1.6,3.5-3.5,3.5l0,0C1285,302.5,1283.4,301,1283.4,299z M1252.8,291.5    c-1.6-1.1-1.9-3.3-0.8-4.9l0,0c1.1-1.6,3.3-1.9,4.9-0.8l0,0c1.6,1.1,1.9,3.3,0.8,4.9l0,0c-0.7,0.9-1.8,1.4-2.8,1.4l0,0    C1254.2,292.2,1253.5,291.9,1252.8,291.5z M1273.6,285.5L1273.6,285.5c-1.8-0.6-2.9-2.6-2.3-4.4l0,0c0.6-1.8,2.6-2.8,4.4-2.3l0,0    l0,0l0,0c1.8,0.6,2.9,2.6,2.3,4.4l0,0c-0.5,1.5-1.9,2.4-3.3,2.4l0,0C1274.3,285.7,1273.9,285.6,1273.6,285.5z"/>
	</g>
	<g>
		<path d="M164.3,538.3c-0.6-1.8,0.4-3.8,2.2-4.4l0,0c1.8-0.6,3.8,0.4,4.4,2.2l0,0c0.6,1.8-0.4,3.8-2.2,4.4l0,0    c-0.4,0.1-0.7,0.2-1.1,0.2l0,0C166.2,540.8,164.8,539.8,164.3,538.3z M144.6,532.8c-1.1-1.6-0.8-3.8,0.8-4.9l0,0    c1.6-1.1,3.8-0.8,4.9,0.8l0,0c1.1,1.6,0.8,3.8-0.8,4.9l0,0c-0.6,0.5-1.3,0.7-2.1,0.7l0,0C146.4,534.2,145.3,533.7,144.6,532.8z     M176.6,520.1C176.6,520.1,176.6,520,176.6,520.1L176.6,520.1C176.6,520,176.6,520,176.6,520.1L176.6,520.1c0-2,1.6-3.6,3.5-3.6    l0,0c1.9,0,3.5,1.5,3.5,3.5l0,0l0,0l0,0c0,0,0,0,0,0l0,0c0,0,0,0,0,0l0,0c0,1.9-1.6,3.5-3.5,3.5l0,0    C178.2,523.6,176.6,522,176.6,520.1z M176.6,520C176.6,520,176.6,520,176.6,520L176.6,520L176.6,520L176.6,520    C176.6,520,176.6,520,176.6,520z M145.3,512.3c-1.6-1.1-1.9-3.3-0.8-4.9l0,0l0,0l0,0c1.1-1.6,3.3-1.9,4.9-0.8l0,0    c1.6,1.1,1.9,3.3,0.8,4.9l0,0c-0.7,0.9-1.8,1.5-2.8,1.5l0,0C146.7,513,146,512.8,145.3,512.3z M166.5,506.2L166.5,506.2    c-1.8-0.6-2.9-2.6-2.3-4.4l0,0c0.6-1.8,2.6-2.8,4.4-2.3l0,0l0,0l0,0c1.8,0.6,2.9,2.6,2.3,4.4l0,0c-0.5,1.5-1.8,2.4-3.3,2.4l0,0    C167.2,506.4,166.8,506.3,166.5,506.2z"/>
	</g>
	<g>
		<g>
			<path class="st2" d="M1175.7,150.1c-1.4,0-2.5-1.1-2.5-2.5c0-1.4,1.1-2.5,2.5-2.5c1.4,0,2.5,1.1,2.5,2.5     C1178.2,149,1177.1,150.1,1175.7,150.1z M1160.9,150.1c-1.4,0-2.5-1.1-2.5-2.5c0-1.4,1.1-2.5,2.5-2.5c1.4,0,2.5,1.1,2.5,2.5     C1163.4,149,1162.3,150.1,1160.9,150.1z M1146.1,150.1c-1.4,0-2.5-1.1-2.5-2.5c0-1.4,1.1-2.5,2.5-2.5s2.5,1.1,2.5,2.5     C1148.6,149,1147.5,150.1,1146.1,150.1z M1131.4,150.1c-1.4,0-2.5-1.1-2.5-2.5c0-1.4,1.1-2.5,2.5-2.5c1.4,0,2.5,1.1,2.5,2.5     C1133.9,149,1132.7,150.1,1131.4,150.1z M1116.6,150.1c-1.4,0-2.5-1.1-2.5-2.5c0-1.4,1.1-2.5,2.5-2.5c1.4,0,2.5,1.1,2.5,2.5     C1119.1,149,1117.9,150.1,1116.6,150.1z"/>
		</g>
	</g>
	<g>
		<g>
			<path class="st2" d="M1013.4,112c-0.4,0-0.6-0.3-0.6-0.6c0-0.4,0.3-0.6,0.6-0.6h82.5c0.4,0,0.6,0.3,0.6,0.6     c0,0.4-0.3,0.6-0.6,0.6H1013.4z"/>
		</g>
	</g>
	<g>
		<g>
			<path class="st2" d="M1065.2,93.6c-0.4,0-0.6-0.3-0.6-0.6c0-0.4,0.3-0.6,0.6-0.6h65.3c0.4,0,0.6,0.3,0.6,0.6     c0,0.4-0.3,0.6-0.6,0.6H1065.2z"/>
		</g>
	</g>
	<g>
		<g>
			<path class="st2" d="M701.4,347.8c-0.4,0-0.6-0.3-0.6-0.6c0-0.4,0.3-0.6,0.6-0.6h90.5c0.4,0,0.6,0.3,0.6,0.6     c0,0.4-0.3,0.6-0.6,0.6H701.4z"/>
		</g>
	</g>
	<g>
		<g>
			<path class="st2" d="M698.2,328.1c-1.4,0-2.5-1.1-2.5-2.5c0-1.4,1.1-2.5,2.5-2.5c1.4,0,2.5,1.1,2.5,2.5     C700.7,327,699.6,328.1,698.2,328.1z M683.4,328.1c-1.4,0-2.5-1.1-2.5-2.5c0-1.4,1.1-2.5,2.5-2.5c1.4,0,2.5,1.1,2.5,2.5     C685.9,327,684.8,328.1,683.4,328.1z M668.6,328.1c-1.4,0-2.5-1.1-2.5-2.5c0-1.4,1.1-2.5,2.5-2.5c1.4,0,2.5,1.1,2.5,2.5     C671.1,327,670,328.1,668.6,328.1z M653.8,328.1c-1.4,0-2.5-1.1-2.5-2.5c0-1.4,1.1-2.5,2.5-2.5c1.4,0,2.5,1.1,2.5,2.5     C656.3,327,655.2,328.1,653.8,328.1z M639.1,328.1c-1.4,0-2.5-1.1-2.5-2.5c0-1.4,1.1-2.5,2.5-2.5c1.4,0,2.5,1.1,2.5,2.5     C641.5,327,640.5,328.1,639.1,328.1z"/>
		</g>
	</g>
	<g>
		<g>
			<g>
				<path class="st2" d="M826.2,300.5c-0.4,0-0.6-0.3-0.6-0.6c0-0.4,0.3-0.6,0.6-0.6h19.1c0.4,0,0.6,0.3,0.6,0.6      c0,0.4-0.3,0.6-0.6,0.6H826.2z"/>
			</g>
		</g>
		<g>
			<g>
				<path class="st2" d="M835.7,310c-0.4,0-0.6-0.3-0.6-0.6v-19.1c0-0.4,0.3-0.6,0.6-0.6c0.4,0,0.6,0.3,0.6,0.6v19.1      C836.4,309.7,836.1,310,835.7,310z"/>
			</g>
		</g>
	</g>
	<g>
		<g>
			<g>
				<path class="st2" d="M692.3,417.1c-0.4,0-0.6-0.3-0.6-0.6c0-0.4,0.3-0.6,0.6-0.6h19.1c0.4,0,0.6,0.3,0.6,0.6      c0,0.4-0.3,0.6-0.6,0.6H692.3z"/>
			</g>
		</g>
		<g>
			<g>
				<path class="st2" d="M701.9,426.6c-0.4,0-0.6-0.3-0.6-0.6v-19.1c0-0.4,0.3-0.6,0.6-0.6c0.4,0,0.6,0.3,0.6,0.6V426      C702.5,426.3,702.2,426.6,701.9,426.6z"/>
			</g>
		</g>
	</g>
	<g>
		<g>
			<path class="st2" d="M527.1,882.2c-0.4,0-0.6-0.3-0.6-0.6c0-0.4,0.3-0.6,0.6-0.6h131.2c0.4,0,0.6,0.3,0.6,0.6     c0,0.4-0.3,0.6-0.6,0.6H527.1z"/>
		</g>
	</g>
	<g>
		<g>
			<path class="st2" d="M592.7,900.5c-0.4,0-0.6-0.3-0.6-0.6s0.3-0.6,0.6-0.6h34.2c0.4,0,0.6,0.3,0.6,0.6s-0.3,0.6-0.6,0.6H592.7z"/>
		</g>
	</g>
	<g>
		<g>
			<path class="st2" d="M191.6,347.9c-1.4,0-2.5-1.1-2.5-2.5c0-1.4,1.1-2.5,2.5-2.5c1.4,0,2.5,1.1,2.5,2.5     C194.1,346.8,193,347.9,191.6,347.9z M176.8,347.9c-1.4,0-2.5-1.1-2.5-2.5c0-1.4,1.1-2.5,2.5-2.5c1.4,0,2.5,1.1,2.5,2.5     C179.3,346.8,178.2,347.9,176.8,347.9z M162.1,347.9c-1.4,0-2.5-1.1-2.5-2.5c0-1.4,1.1-2.5,2.5-2.5c1.4,0,2.5,1.1,2.5,2.5     C164.5,346.8,163.4,347.9,162.1,347.9z M147.3,347.9c-1.4,0-2.5-1.1-2.5-2.5c0-1.4,1.1-2.5,2.5-2.5c1.4,0,2.5,1.1,2.5,2.5     C149.7,346.8,148.7,347.9,147.3,347.9z M132.5,347.9c-1.4,0-2.5-1.1-2.5-2.5c0-1.4,1.1-2.5,2.5-2.5c1.4,0,2.5,1.1,2.5,2.5     C135,346.8,133.9,347.9,132.5,347.9z"/>
		</g>
	</g>
	<g>
		<g>
			<path class="st2" d="M156,304.6c-0.4,0-0.6-0.3-0.6-0.6c0-0.4,0.3-0.6,0.6-0.6h75.9c0.4,0,0.6,0.3,0.6,0.6c0,0.4-0.3,0.6-0.6,0.6     H156z"/>
		</g>
	</g>
	<g>
		<g>
			<path class="st2" d="M113.4,316.8c-0.4,0-0.6-0.3-0.6-0.6c0-0.4,0.3-0.6,0.6-0.6h59.1c0.4,0,0.6,0.3,0.6,0.6     c0,0.4-0.3,0.6-0.6,0.6H113.4z"/>
		</g>
	</g>
	<g>
		<g>
			<path class="st2" d="M104.3,591c-0.4,0-0.6-0.3-0.6-0.6c0-0.4,0.3-0.6,0.6-0.6H126c0.4,0,0.6,0.3,0.6,0.6c0,0.4-0.3,0.6-0.6,0.6     H104.3z"/>
		</g>
	</g>
	<g>
		<g>
			<g>
				<path class="st2" d="M91,479.1c-0.4,0-0.6-0.3-0.6-0.6c0-0.4,0.3-0.6,0.6-0.6h19.1c0.4,0,0.6,0.3,0.6,0.6c0,0.4-0.3,0.6-0.6,0.6      H91z"/>
			</g>
		</g>
		<g>
			<g>
				<path class="st2" d="M100.6,488.7c-0.4,0-0.6-0.3-0.6-0.6v-19.1c0-0.4,0.3-0.6,0.6-0.6c0.4,0,0.6,0.3,0.6,0.6V488      C101.2,488.4,100.9,488.7,100.6,488.7z"/>
			</g>
		</g>
	</g>
	<g>
		<g>
			<path class="st2" d="M1129.1,390c-0.4,0-0.6-0.3-0.6-0.6c0-0.4,0.3-0.6,0.6-0.6h34.2c0.4,0,0.6,0.3,0.6,0.6     c0,0.4-0.3,0.6-0.6,0.6H1129.1z"/>
		</g>
	</g>
	<g>
		<g>
			<path class="st2" d="M1208.6,878.2c-0.4,0-0.6-0.3-0.6-0.6s0.3-0.6,0.6-0.6h34.2c0.4,0,0.6,0.3,0.6,0.6s-0.3,0.6-0.6,0.6H1208.6z     "/>
		</g>
	</g>
	<g>
		<g>
			<path class="st2" d="M1075.1,393.1c-4.1,0-7.5-3.4-7.5-7.5c0-4.1,3.3-7.5,7.5-7.5s7.5,3.4,7.5,7.5     C1082.6,389.7,1079.2,393.1,1075.1,393.1z M1075.1,379.4c-3.4,0-6.2,2.8-6.2,6.2c0,3.4,2.8,6.2,6.2,6.2c3.4,0,6.2-2.8,6.2-6.2     C1081.3,382.2,1078.5,379.4,1075.1,379.4z"/>
		</g>
	</g>
</g>
</svg>
